G04 #@! TF.GenerationSoftware,KiCad,Pcbnew,5.1.5-52549c5~84~ubuntu18.04.1*
G04 #@! TF.CreationDate,2020-03-23T11:22:08-04:00*
G04 #@! TF.ProjectId,bbf-eurojacks-thonkiconn,6262662d-6575-4726-9f6a-61636b732d74,rev?*
G04 #@! TF.SameCoordinates,Original*
G04 #@! TF.FileFunction,Soldermask,Top*
G04 #@! TF.FilePolarity,Negative*
%FSLAX46Y46*%
G04 Gerber Fmt 4.6, Leading zero omitted, Abs format (unit mm)*
G04 Created by KiCad (PCBNEW 5.1.5-52549c5~84~ubuntu18.04.1) date 2020-03-23 11:22:08*
%MOMM*%
%LPD*%
G04 APERTURE LIST*
%ADD10C,0.100000*%
G04 APERTURE END LIST*
D10*
G36*
X152304865Y-128127220D02*
G01*
X152494388Y-128205723D01*
X152664954Y-128319692D01*
X152810008Y-128464746D01*
X152923977Y-128635312D01*
X153002480Y-128824835D01*
X153042500Y-129026031D01*
X153042500Y-129231169D01*
X153002480Y-129432365D01*
X152923977Y-129621888D01*
X152810008Y-129792454D01*
X152664954Y-129937508D01*
X152494388Y-130051477D01*
X152494387Y-130051478D01*
X152494386Y-130051478D01*
X152304865Y-130129980D01*
X152103670Y-130170000D01*
X151898530Y-130170000D01*
X151697335Y-130129980D01*
X151507814Y-130051478D01*
X151507813Y-130051478D01*
X151507812Y-130051477D01*
X151337246Y-129937508D01*
X151192192Y-129792454D01*
X151078223Y-129621888D01*
X150999720Y-129432365D01*
X150959700Y-129231169D01*
X150959700Y-129026031D01*
X150999720Y-128824835D01*
X151078223Y-128635312D01*
X151192192Y-128464746D01*
X151337246Y-128319692D01*
X151507812Y-128205723D01*
X151697335Y-128127220D01*
X151898530Y-128087200D01*
X152103670Y-128087200D01*
X152304865Y-128127220D01*
G37*
G36*
X154844865Y-128127220D02*
G01*
X155034388Y-128205723D01*
X155204954Y-128319692D01*
X155350008Y-128464746D01*
X155463977Y-128635312D01*
X155542480Y-128824835D01*
X155582500Y-129026031D01*
X155582500Y-129231169D01*
X155542480Y-129432365D01*
X155463977Y-129621888D01*
X155350008Y-129792454D01*
X155204954Y-129937508D01*
X155034388Y-130051477D01*
X155034387Y-130051478D01*
X155034386Y-130051478D01*
X154844865Y-130129980D01*
X154643670Y-130170000D01*
X154438530Y-130170000D01*
X154237335Y-130129980D01*
X154047814Y-130051478D01*
X154047813Y-130051478D01*
X154047812Y-130051477D01*
X153877246Y-129937508D01*
X153732192Y-129792454D01*
X153618223Y-129621888D01*
X153539720Y-129432365D01*
X153499700Y-129231169D01*
X153499700Y-129026031D01*
X153539720Y-128824835D01*
X153618223Y-128635312D01*
X153732192Y-128464746D01*
X153877246Y-128319692D01*
X154047812Y-128205723D01*
X154237335Y-128127220D01*
X154438530Y-128087200D01*
X154643670Y-128087200D01*
X154844865Y-128127220D01*
G37*
G36*
X157384865Y-128127220D02*
G01*
X157574388Y-128205723D01*
X157744954Y-128319692D01*
X157890008Y-128464746D01*
X158003977Y-128635312D01*
X158082480Y-128824835D01*
X158122500Y-129026031D01*
X158122500Y-129231169D01*
X158082480Y-129432365D01*
X158003977Y-129621888D01*
X157890008Y-129792454D01*
X157744954Y-129937508D01*
X157574388Y-130051477D01*
X157574387Y-130051478D01*
X157574386Y-130051478D01*
X157384865Y-130129980D01*
X157183670Y-130170000D01*
X156978530Y-130170000D01*
X156777335Y-130129980D01*
X156587814Y-130051478D01*
X156587813Y-130051478D01*
X156587812Y-130051477D01*
X156417246Y-129937508D01*
X156272192Y-129792454D01*
X156158223Y-129621888D01*
X156079720Y-129432365D01*
X156039700Y-129231169D01*
X156039700Y-129026031D01*
X156079720Y-128824835D01*
X156158223Y-128635312D01*
X156272192Y-128464746D01*
X156417246Y-128319692D01*
X156587812Y-128205723D01*
X156777335Y-128127220D01*
X156978530Y-128087200D01*
X157183670Y-128087200D01*
X157384865Y-128127220D01*
G37*
G36*
X149764865Y-128127220D02*
G01*
X149954388Y-128205723D01*
X150124954Y-128319692D01*
X150270008Y-128464746D01*
X150383977Y-128635312D01*
X150462480Y-128824835D01*
X150502500Y-129026031D01*
X150502500Y-129231169D01*
X150462480Y-129432365D01*
X150383977Y-129621888D01*
X150270008Y-129792454D01*
X150124954Y-129937508D01*
X149954388Y-130051477D01*
X149954387Y-130051478D01*
X149954386Y-130051478D01*
X149764865Y-130129980D01*
X149563670Y-130170000D01*
X149358530Y-130170000D01*
X149157335Y-130129980D01*
X148967814Y-130051478D01*
X148967813Y-130051478D01*
X148967812Y-130051477D01*
X148797246Y-129937508D01*
X148652192Y-129792454D01*
X148538223Y-129621888D01*
X148459720Y-129432365D01*
X148419700Y-129231169D01*
X148419700Y-129026031D01*
X148459720Y-128824835D01*
X148538223Y-128635312D01*
X148652192Y-128464746D01*
X148797246Y-128319692D01*
X148967812Y-128205723D01*
X149157335Y-128127220D01*
X149358530Y-128087200D01*
X149563670Y-128087200D01*
X149764865Y-128127220D01*
G37*
G36*
X147224865Y-128127220D02*
G01*
X147414388Y-128205723D01*
X147584954Y-128319692D01*
X147730008Y-128464746D01*
X147843977Y-128635312D01*
X147922480Y-128824835D01*
X147962500Y-129026031D01*
X147962500Y-129231169D01*
X147922480Y-129432365D01*
X147843977Y-129621888D01*
X147730008Y-129792454D01*
X147584954Y-129937508D01*
X147414388Y-130051477D01*
X147414387Y-130051478D01*
X147414386Y-130051478D01*
X147224865Y-130129980D01*
X147023670Y-130170000D01*
X146818530Y-130170000D01*
X146617335Y-130129980D01*
X146427814Y-130051478D01*
X146427813Y-130051478D01*
X146427812Y-130051477D01*
X146257246Y-129937508D01*
X146112192Y-129792454D01*
X145998223Y-129621888D01*
X145919720Y-129432365D01*
X145879700Y-129231169D01*
X145879700Y-129026031D01*
X145919720Y-128824835D01*
X145998223Y-128635312D01*
X146112192Y-128464746D01*
X146257246Y-128319692D01*
X146427812Y-128205723D01*
X146617335Y-128127220D01*
X146818530Y-128087200D01*
X147023670Y-128087200D01*
X147224865Y-128127220D01*
G37*
G36*
X157384865Y-125587220D02*
G01*
X157574388Y-125665723D01*
X157744954Y-125779692D01*
X157890008Y-125924746D01*
X158003977Y-126095312D01*
X158082480Y-126284835D01*
X158122500Y-126486031D01*
X158122500Y-126691169D01*
X158082480Y-126892365D01*
X158003977Y-127081888D01*
X157890008Y-127252454D01*
X157744954Y-127397508D01*
X157574388Y-127511477D01*
X157574387Y-127511478D01*
X157574386Y-127511478D01*
X157384865Y-127589980D01*
X157183670Y-127630000D01*
X156978530Y-127630000D01*
X156777335Y-127589980D01*
X156587814Y-127511478D01*
X156587813Y-127511478D01*
X156587812Y-127511477D01*
X156417246Y-127397508D01*
X156272192Y-127252454D01*
X156158223Y-127081888D01*
X156079720Y-126892365D01*
X156039700Y-126691169D01*
X156039700Y-126486031D01*
X156079720Y-126284835D01*
X156158223Y-126095312D01*
X156272192Y-125924746D01*
X156417246Y-125779692D01*
X156587812Y-125665723D01*
X156777335Y-125587220D01*
X156978530Y-125547200D01*
X157183670Y-125547200D01*
X157384865Y-125587220D01*
G37*
G36*
X147224865Y-125587220D02*
G01*
X147414388Y-125665723D01*
X147584954Y-125779692D01*
X147730008Y-125924746D01*
X147843977Y-126095312D01*
X147922480Y-126284835D01*
X147962500Y-126486031D01*
X147962500Y-126691169D01*
X147922480Y-126892365D01*
X147843977Y-127081888D01*
X147730008Y-127252454D01*
X147584954Y-127397508D01*
X147414388Y-127511477D01*
X147414387Y-127511478D01*
X147414386Y-127511478D01*
X147224865Y-127589980D01*
X147023670Y-127630000D01*
X146818530Y-127630000D01*
X146617335Y-127589980D01*
X146427814Y-127511478D01*
X146427813Y-127511478D01*
X146427812Y-127511477D01*
X146257246Y-127397508D01*
X146112192Y-127252454D01*
X145998223Y-127081888D01*
X145919720Y-126892365D01*
X145879700Y-126691169D01*
X145879700Y-126486031D01*
X145919720Y-126284835D01*
X145998223Y-126095312D01*
X146112192Y-125924746D01*
X146257246Y-125779692D01*
X146427812Y-125665723D01*
X146617335Y-125587220D01*
X146818530Y-125547200D01*
X147023670Y-125547200D01*
X147224865Y-125587220D01*
G37*
G36*
X149764865Y-125587220D02*
G01*
X149954388Y-125665723D01*
X150124954Y-125779692D01*
X150270008Y-125924746D01*
X150383977Y-126095312D01*
X150462480Y-126284835D01*
X150502500Y-126486031D01*
X150502500Y-126691169D01*
X150462480Y-126892365D01*
X150383977Y-127081888D01*
X150270008Y-127252454D01*
X150124954Y-127397508D01*
X149954388Y-127511477D01*
X149954387Y-127511478D01*
X149954386Y-127511478D01*
X149764865Y-127589980D01*
X149563670Y-127630000D01*
X149358530Y-127630000D01*
X149157335Y-127589980D01*
X148967814Y-127511478D01*
X148967813Y-127511478D01*
X148967812Y-127511477D01*
X148797246Y-127397508D01*
X148652192Y-127252454D01*
X148538223Y-127081888D01*
X148459720Y-126892365D01*
X148419700Y-126691169D01*
X148419700Y-126486031D01*
X148459720Y-126284835D01*
X148538223Y-126095312D01*
X148652192Y-125924746D01*
X148797246Y-125779692D01*
X148967812Y-125665723D01*
X149157335Y-125587220D01*
X149358530Y-125547200D01*
X149563670Y-125547200D01*
X149764865Y-125587220D01*
G37*
G36*
X152304865Y-125587220D02*
G01*
X152494388Y-125665723D01*
X152664954Y-125779692D01*
X152810008Y-125924746D01*
X152923977Y-126095312D01*
X153002480Y-126284835D01*
X153042500Y-126486031D01*
X153042500Y-126691169D01*
X153002480Y-126892365D01*
X152923977Y-127081888D01*
X152810008Y-127252454D01*
X152664954Y-127397508D01*
X152494388Y-127511477D01*
X152494387Y-127511478D01*
X152494386Y-127511478D01*
X152304865Y-127589980D01*
X152103670Y-127630000D01*
X151898530Y-127630000D01*
X151697335Y-127589980D01*
X151507814Y-127511478D01*
X151507813Y-127511478D01*
X151507812Y-127511477D01*
X151337246Y-127397508D01*
X151192192Y-127252454D01*
X151078223Y-127081888D01*
X150999720Y-126892365D01*
X150959700Y-126691169D01*
X150959700Y-126486031D01*
X150999720Y-126284835D01*
X151078223Y-126095312D01*
X151192192Y-125924746D01*
X151337246Y-125779692D01*
X151507812Y-125665723D01*
X151697335Y-125587220D01*
X151898530Y-125547200D01*
X152103670Y-125547200D01*
X152304865Y-125587220D01*
G37*
G36*
X154844865Y-125587220D02*
G01*
X155034388Y-125665723D01*
X155204954Y-125779692D01*
X155350008Y-125924746D01*
X155463977Y-126095312D01*
X155542480Y-126284835D01*
X155582500Y-126486031D01*
X155582500Y-126691169D01*
X155542480Y-126892365D01*
X155463977Y-127081888D01*
X155350008Y-127252454D01*
X155204954Y-127397508D01*
X155034388Y-127511477D01*
X155034387Y-127511478D01*
X155034386Y-127511478D01*
X154844865Y-127589980D01*
X154643670Y-127630000D01*
X154438530Y-127630000D01*
X154237335Y-127589980D01*
X154047814Y-127511478D01*
X154047813Y-127511478D01*
X154047812Y-127511477D01*
X153877246Y-127397508D01*
X153732192Y-127252454D01*
X153618223Y-127081888D01*
X153539720Y-126892365D01*
X153499700Y-126691169D01*
X153499700Y-126486031D01*
X153539720Y-126284835D01*
X153618223Y-126095312D01*
X153732192Y-125924746D01*
X153877246Y-125779692D01*
X154047812Y-125665723D01*
X154237335Y-125587220D01*
X154438530Y-125547200D01*
X154643670Y-125547200D01*
X154844865Y-125587220D01*
G37*
G36*
X157723322Y-118813467D02*
G01*
X157864886Y-118856410D01*
X157995352Y-118926146D01*
X158025140Y-118950592D01*
X158109707Y-119019993D01*
X158162618Y-119084467D01*
X158203554Y-119134348D01*
X158273290Y-119264814D01*
X158316233Y-119406378D01*
X158327100Y-119516713D01*
X158327100Y-120690487D01*
X158316233Y-120800822D01*
X158273290Y-120942386D01*
X158203554Y-121072852D01*
X158166884Y-121117534D01*
X158109707Y-121187206D01*
X158066299Y-121222829D01*
X157995351Y-121281054D01*
X157864885Y-121350790D01*
X157723321Y-121393733D01*
X157576100Y-121408233D01*
X157428878Y-121393733D01*
X157287314Y-121350790D01*
X157156848Y-121281054D01*
X157112166Y-121244384D01*
X157042494Y-121187207D01*
X156948647Y-121072852D01*
X156948646Y-121072851D01*
X156878910Y-120942385D01*
X156835967Y-120800821D01*
X156825100Y-120690486D01*
X156825101Y-119516713D01*
X156835968Y-119406378D01*
X156878911Y-119264814D01*
X156948647Y-119134348D01*
X156989583Y-119084467D01*
X157042494Y-119019993D01*
X157127061Y-118950592D01*
X157156849Y-118926146D01*
X157287315Y-118856410D01*
X157428879Y-118813467D01*
X157576100Y-118798967D01*
X157723322Y-118813467D01*
G37*
G36*
X149433123Y-118864190D02*
G01*
X149533782Y-118894725D01*
X149584113Y-118909992D01*
X149723265Y-118984371D01*
X149845233Y-119084467D01*
X149945329Y-119206435D01*
X150019708Y-119345587D01*
X150019708Y-119345588D01*
X150065510Y-119496577D01*
X150077100Y-119614255D01*
X150077100Y-120592945D01*
X150065510Y-120710623D01*
X150038149Y-120800819D01*
X150019708Y-120861613D01*
X149976533Y-120942387D01*
X149945329Y-121000765D01*
X149845233Y-121122733D01*
X149766671Y-121187206D01*
X149723264Y-121222829D01*
X149584112Y-121297208D01*
X149533781Y-121312475D01*
X149433122Y-121343010D01*
X149276100Y-121358475D01*
X149119077Y-121343010D01*
X149018418Y-121312475D01*
X148968087Y-121297208D01*
X148828935Y-121222829D01*
X148706967Y-121122733D01*
X148606871Y-121000764D01*
X148575667Y-120942386D01*
X148532492Y-120861612D01*
X148514051Y-120800819D01*
X148486690Y-120710622D01*
X148475100Y-120592944D01*
X148475100Y-119614255D01*
X148486691Y-119496577D01*
X148532493Y-119345588D01*
X148532493Y-119345587D01*
X148606872Y-119206435D01*
X148706968Y-119084467D01*
X148828936Y-118984371D01*
X148968088Y-118909992D01*
X149018419Y-118894725D01*
X149119078Y-118864190D01*
X149276100Y-118848725D01*
X149433123Y-118864190D01*
G37*
G36*
X146977100Y-121254600D02*
G01*
X145375100Y-121254600D01*
X145375100Y-118952600D01*
X146977100Y-118952600D01*
X146977100Y-121254600D01*
G37*
G36*
X143827500Y-114930000D02*
G01*
X141744700Y-114930000D01*
X141744700Y-112847200D01*
X143827500Y-112847200D01*
X143827500Y-114930000D01*
G37*
G36*
X143089865Y-110347220D02*
G01*
X143279388Y-110425723D01*
X143449954Y-110539692D01*
X143595008Y-110684746D01*
X143667838Y-110793744D01*
X143708978Y-110855314D01*
X143787480Y-111044835D01*
X143802300Y-111119338D01*
X143827500Y-111246031D01*
X143827500Y-111451169D01*
X143787480Y-111652365D01*
X143708977Y-111841888D01*
X143595008Y-112012454D01*
X143449954Y-112157508D01*
X143279388Y-112271477D01*
X143279387Y-112271478D01*
X143279386Y-112271478D01*
X143089865Y-112349980D01*
X142888670Y-112390000D01*
X142683530Y-112390000D01*
X142482335Y-112349980D01*
X142292814Y-112271478D01*
X142292813Y-112271478D01*
X142292812Y-112271477D01*
X142122246Y-112157508D01*
X141977192Y-112012454D01*
X141863223Y-111841888D01*
X141784720Y-111652365D01*
X141744700Y-111451169D01*
X141744700Y-111246031D01*
X141769901Y-111119338D01*
X141784720Y-111044835D01*
X141863222Y-110855314D01*
X141904362Y-110793744D01*
X141977192Y-110684746D01*
X142122246Y-110539692D01*
X142292812Y-110425723D01*
X142482335Y-110347220D01*
X142683530Y-110307200D01*
X142888670Y-110307200D01*
X143089865Y-110347220D01*
G37*
G36*
X157723322Y-108745599D02*
G01*
X157864886Y-108788542D01*
X157995352Y-108858278D01*
X158025140Y-108882724D01*
X158109707Y-108952125D01*
X158162618Y-109016599D01*
X158203554Y-109066480D01*
X158273290Y-109196946D01*
X158316233Y-109338510D01*
X158327100Y-109448845D01*
X158327100Y-110622619D01*
X158316233Y-110732954D01*
X158273290Y-110874518D01*
X158203554Y-111004984D01*
X158170849Y-111044835D01*
X158109707Y-111119338D01*
X158066299Y-111154961D01*
X157995351Y-111213186D01*
X157864885Y-111282922D01*
X157723321Y-111325865D01*
X157576100Y-111340365D01*
X157428878Y-111325865D01*
X157287314Y-111282922D01*
X157156848Y-111213186D01*
X157112166Y-111176516D01*
X157042494Y-111119339D01*
X156989582Y-111054864D01*
X156948646Y-111004983D01*
X156878910Y-110874517D01*
X156835967Y-110732953D01*
X156825100Y-110622618D01*
X156825101Y-109448845D01*
X156835968Y-109338510D01*
X156878911Y-109196946D01*
X156948647Y-109066480D01*
X156989583Y-109016599D01*
X157042494Y-108952125D01*
X157127061Y-108882724D01*
X157156849Y-108858278D01*
X157287315Y-108788542D01*
X157428879Y-108745599D01*
X157576100Y-108731099D01*
X157723322Y-108745599D01*
G37*
G36*
X149433123Y-108796322D02*
G01*
X149533782Y-108826857D01*
X149584113Y-108842124D01*
X149723265Y-108916503D01*
X149845233Y-109016599D01*
X149945329Y-109138567D01*
X150019708Y-109277719D01*
X150019708Y-109277720D01*
X150065510Y-109428709D01*
X150077100Y-109546387D01*
X150077100Y-110525077D01*
X150065510Y-110642755D01*
X150038149Y-110732951D01*
X150019708Y-110793745D01*
X149976533Y-110874519D01*
X149945329Y-110932897D01*
X149845233Y-111054865D01*
X149766671Y-111119338D01*
X149723264Y-111154961D01*
X149584112Y-111229340D01*
X149533781Y-111244607D01*
X149433122Y-111275142D01*
X149276100Y-111290607D01*
X149119077Y-111275142D01*
X149018418Y-111244607D01*
X148968087Y-111229340D01*
X148828935Y-111154961D01*
X148706967Y-111054865D01*
X148606871Y-110932896D01*
X148575667Y-110874518D01*
X148532492Y-110793744D01*
X148499428Y-110684746D01*
X148486690Y-110642754D01*
X148478963Y-110564302D01*
X148475100Y-110525077D01*
X148475100Y-109546387D01*
X148482382Y-109472454D01*
X148486691Y-109428709D01*
X148532493Y-109277720D01*
X148532493Y-109277719D01*
X148606872Y-109138567D01*
X148706968Y-109016599D01*
X148828936Y-108916503D01*
X148968088Y-108842124D01*
X149018419Y-108826857D01*
X149119078Y-108796322D01*
X149276100Y-108780857D01*
X149433123Y-108796322D01*
G37*
G36*
X146977100Y-111186732D02*
G01*
X145375100Y-111186732D01*
X145375100Y-108884732D01*
X146977100Y-108884732D01*
X146977100Y-111186732D01*
G37*
G36*
X143089865Y-107807220D02*
G01*
X143279388Y-107885723D01*
X143449954Y-107999692D01*
X143595008Y-108144746D01*
X143595009Y-108144748D01*
X143708978Y-108315314D01*
X143787480Y-108504835D01*
X143827500Y-108706030D01*
X143827500Y-108911170D01*
X143819353Y-108952126D01*
X143787480Y-109112365D01*
X143708977Y-109301888D01*
X143595008Y-109472454D01*
X143449954Y-109617508D01*
X143279388Y-109731477D01*
X143279387Y-109731478D01*
X143279386Y-109731478D01*
X143089865Y-109809980D01*
X142888670Y-109850000D01*
X142683530Y-109850000D01*
X142482335Y-109809980D01*
X142292814Y-109731478D01*
X142292813Y-109731478D01*
X142292812Y-109731477D01*
X142122246Y-109617508D01*
X141977192Y-109472454D01*
X141863223Y-109301888D01*
X141784720Y-109112365D01*
X141752847Y-108952126D01*
X141744700Y-108911170D01*
X141744700Y-108706030D01*
X141784720Y-108504835D01*
X141863222Y-108315314D01*
X141977191Y-108144748D01*
X141977192Y-108144746D01*
X142122246Y-107999692D01*
X142292812Y-107885723D01*
X142482335Y-107807220D01*
X142683530Y-107767200D01*
X142888670Y-107767200D01*
X143089865Y-107807220D01*
G37*
G36*
X143089865Y-105267220D02*
G01*
X143279388Y-105345723D01*
X143449954Y-105459692D01*
X143595008Y-105604746D01*
X143708977Y-105775312D01*
X143787480Y-105964835D01*
X143827500Y-106166031D01*
X143827500Y-106371169D01*
X143787480Y-106572365D01*
X143708977Y-106761888D01*
X143595008Y-106932454D01*
X143449954Y-107077508D01*
X143279388Y-107191477D01*
X143279387Y-107191478D01*
X143279386Y-107191478D01*
X143089865Y-107269980D01*
X142888670Y-107310000D01*
X142683530Y-107310000D01*
X142482335Y-107269980D01*
X142292814Y-107191478D01*
X142292813Y-107191478D01*
X142292812Y-107191477D01*
X142122246Y-107077508D01*
X141977192Y-106932454D01*
X141863223Y-106761888D01*
X141784720Y-106572365D01*
X141744700Y-106371169D01*
X141744700Y-106166031D01*
X141784720Y-105964835D01*
X141863223Y-105775312D01*
X141977192Y-105604746D01*
X142122246Y-105459692D01*
X142292812Y-105345723D01*
X142482335Y-105267220D01*
X142683530Y-105227200D01*
X142888670Y-105227200D01*
X143089865Y-105267220D01*
G37*
G36*
X143089865Y-102727220D02*
G01*
X143279388Y-102805723D01*
X143449954Y-102919692D01*
X143595008Y-103064746D01*
X143708977Y-103235312D01*
X143787480Y-103424835D01*
X143827500Y-103626031D01*
X143827500Y-103831169D01*
X143787480Y-104032365D01*
X143708977Y-104221888D01*
X143595008Y-104392454D01*
X143449954Y-104537508D01*
X143279388Y-104651477D01*
X143279387Y-104651478D01*
X143279386Y-104651478D01*
X143089865Y-104729980D01*
X142888670Y-104770000D01*
X142683530Y-104770000D01*
X142482335Y-104729980D01*
X142292814Y-104651478D01*
X142292813Y-104651478D01*
X142292812Y-104651477D01*
X142122246Y-104537508D01*
X141977192Y-104392454D01*
X141863223Y-104221888D01*
X141784720Y-104032365D01*
X141744700Y-103831169D01*
X141744700Y-103626031D01*
X141784720Y-103424835D01*
X141863223Y-103235312D01*
X141977192Y-103064746D01*
X142122246Y-102919692D01*
X142292812Y-102805723D01*
X142482335Y-102727220D01*
X142683530Y-102687200D01*
X142888670Y-102687200D01*
X143089865Y-102727220D01*
G37*
G36*
X143089865Y-100187220D02*
G01*
X143279388Y-100265723D01*
X143449954Y-100379692D01*
X143595008Y-100524746D01*
X143688781Y-100665087D01*
X143708978Y-100695314D01*
X143787480Y-100884835D01*
X143807802Y-100986999D01*
X143827500Y-101086031D01*
X143827500Y-101291169D01*
X143787480Y-101492365D01*
X143708977Y-101681888D01*
X143595008Y-101852454D01*
X143449954Y-101997508D01*
X143279388Y-102111477D01*
X143279387Y-102111478D01*
X143279386Y-102111478D01*
X143089865Y-102189980D01*
X142888670Y-102230000D01*
X142683530Y-102230000D01*
X142482335Y-102189980D01*
X142292814Y-102111478D01*
X142292813Y-102111478D01*
X142292812Y-102111477D01*
X142122246Y-101997508D01*
X141977192Y-101852454D01*
X141863223Y-101681888D01*
X141784720Y-101492365D01*
X141744700Y-101291169D01*
X141744700Y-101086031D01*
X141764399Y-100986999D01*
X141784720Y-100884835D01*
X141863222Y-100695314D01*
X141883419Y-100665087D01*
X141977192Y-100524746D01*
X142122246Y-100379692D01*
X142292812Y-100265723D01*
X142482335Y-100187220D01*
X142683530Y-100147200D01*
X142888670Y-100147200D01*
X143089865Y-100187220D01*
G37*
G36*
X157723322Y-98677733D02*
G01*
X157864886Y-98720676D01*
X157995352Y-98790412D01*
X158025140Y-98814858D01*
X158109707Y-98884259D01*
X158179108Y-98968826D01*
X158203554Y-98998614D01*
X158273290Y-99129080D01*
X158316233Y-99270644D01*
X158327100Y-99380979D01*
X158327100Y-100554753D01*
X158316233Y-100665088D01*
X158273290Y-100806652D01*
X158203554Y-100937118D01*
X158166884Y-100981800D01*
X158109707Y-101051472D01*
X158066299Y-101087095D01*
X157995351Y-101145320D01*
X157864885Y-101215056D01*
X157723321Y-101257999D01*
X157576100Y-101272499D01*
X157428878Y-101257999D01*
X157287314Y-101215056D01*
X157156848Y-101145320D01*
X157112166Y-101108650D01*
X157042494Y-101051473D01*
X156948647Y-100937118D01*
X156948646Y-100937117D01*
X156878910Y-100806651D01*
X156835967Y-100665087D01*
X156825100Y-100554752D01*
X156825101Y-99380979D01*
X156835968Y-99270644D01*
X156878911Y-99129080D01*
X156948647Y-98998614D01*
X156973093Y-98968826D01*
X157042494Y-98884259D01*
X157127061Y-98814858D01*
X157156849Y-98790412D01*
X157287315Y-98720676D01*
X157428879Y-98677733D01*
X157576100Y-98663233D01*
X157723322Y-98677733D01*
G37*
G36*
X149433123Y-98728456D02*
G01*
X149508001Y-98751170D01*
X149584113Y-98774258D01*
X149723265Y-98848637D01*
X149845233Y-98948733D01*
X149945329Y-99070701D01*
X150019708Y-99209853D01*
X150019708Y-99209854D01*
X150065510Y-99360843D01*
X150077100Y-99478521D01*
X150077100Y-100457211D01*
X150065510Y-100574889D01*
X150038149Y-100665085D01*
X150019708Y-100725879D01*
X149976533Y-100806653D01*
X149945329Y-100865031D01*
X149845233Y-100986999D01*
X149723264Y-101087095D01*
X149584112Y-101161474D01*
X149533781Y-101176741D01*
X149433122Y-101207276D01*
X149276100Y-101222741D01*
X149119077Y-101207276D01*
X149018418Y-101176741D01*
X148968087Y-101161474D01*
X148828935Y-101087095D01*
X148827637Y-101086030D01*
X148706967Y-100986999D01*
X148606871Y-100865030D01*
X148575667Y-100806652D01*
X148532492Y-100725878D01*
X148514051Y-100665085D01*
X148486690Y-100574888D01*
X148475100Y-100457210D01*
X148475100Y-99478521D01*
X148486691Y-99360843D01*
X148532493Y-99209854D01*
X148532493Y-99209853D01*
X148606872Y-99070701D01*
X148706968Y-98948733D01*
X148828936Y-98848637D01*
X148968088Y-98774258D01*
X149044200Y-98751170D01*
X149119078Y-98728456D01*
X149276100Y-98712991D01*
X149433123Y-98728456D01*
G37*
G36*
X146977100Y-101118866D02*
G01*
X145375100Y-101118866D01*
X145375100Y-98816866D01*
X146977100Y-98816866D01*
X146977100Y-101118866D01*
G37*
G36*
X143089865Y-97647220D02*
G01*
X143279388Y-97725723D01*
X143449954Y-97839692D01*
X143595008Y-97984746D01*
X143595009Y-97984748D01*
X143708978Y-98155314D01*
X143787480Y-98344835D01*
X143827500Y-98546030D01*
X143827500Y-98751170D01*
X143819694Y-98790412D01*
X143787480Y-98952365D01*
X143708977Y-99141888D01*
X143595008Y-99312454D01*
X143449954Y-99457508D01*
X143279388Y-99571477D01*
X143279387Y-99571478D01*
X143279386Y-99571478D01*
X143089865Y-99649980D01*
X142888670Y-99690000D01*
X142683530Y-99690000D01*
X142482335Y-99649980D01*
X142292814Y-99571478D01*
X142292813Y-99571478D01*
X142292812Y-99571477D01*
X142122246Y-99457508D01*
X141977192Y-99312454D01*
X141863223Y-99141888D01*
X141784720Y-98952365D01*
X141752506Y-98790412D01*
X141744700Y-98751170D01*
X141744700Y-98546030D01*
X141784720Y-98344835D01*
X141863222Y-98155314D01*
X141977191Y-97984748D01*
X141977192Y-97984746D01*
X142122246Y-97839692D01*
X142292812Y-97725723D01*
X142482335Y-97647220D01*
X142683530Y-97607200D01*
X142888670Y-97607200D01*
X143089865Y-97647220D01*
G37*
G36*
X143089865Y-95107220D02*
G01*
X143279388Y-95185723D01*
X143449954Y-95299692D01*
X143595008Y-95444746D01*
X143708977Y-95615312D01*
X143787480Y-95804835D01*
X143827500Y-96006031D01*
X143827500Y-96211169D01*
X143787480Y-96412365D01*
X143708977Y-96601888D01*
X143595008Y-96772454D01*
X143449954Y-96917508D01*
X143279388Y-97031477D01*
X143279387Y-97031478D01*
X143279386Y-97031478D01*
X143089865Y-97109980D01*
X142888670Y-97150000D01*
X142683530Y-97150000D01*
X142482335Y-97109980D01*
X142292814Y-97031478D01*
X142292813Y-97031478D01*
X142292812Y-97031477D01*
X142122246Y-96917508D01*
X141977192Y-96772454D01*
X141863223Y-96601888D01*
X141784720Y-96412365D01*
X141744700Y-96211169D01*
X141744700Y-96006031D01*
X141784720Y-95804835D01*
X141863223Y-95615312D01*
X141977192Y-95444746D01*
X142122246Y-95299692D01*
X142292812Y-95185723D01*
X142482335Y-95107220D01*
X142683530Y-95067200D01*
X142888670Y-95067200D01*
X143089865Y-95107220D01*
G37*
G36*
X157723322Y-88609867D02*
G01*
X157864886Y-88652810D01*
X157995352Y-88722546D01*
X158025140Y-88746992D01*
X158109707Y-88816393D01*
X158162618Y-88880867D01*
X158203554Y-88930748D01*
X158273290Y-89061214D01*
X158316233Y-89202778D01*
X158327100Y-89313113D01*
X158327100Y-90486887D01*
X158316233Y-90597222D01*
X158273290Y-90738786D01*
X158203554Y-90869252D01*
X158166884Y-90913934D01*
X158109707Y-90983606D01*
X158066299Y-91019229D01*
X157995351Y-91077454D01*
X157864885Y-91147190D01*
X157723321Y-91190133D01*
X157576100Y-91204633D01*
X157428878Y-91190133D01*
X157287314Y-91147190D01*
X157156848Y-91077454D01*
X157112166Y-91040784D01*
X157042494Y-90983607D01*
X156948647Y-90869252D01*
X156948646Y-90869251D01*
X156878910Y-90738785D01*
X156835967Y-90597221D01*
X156825100Y-90486886D01*
X156825101Y-89313113D01*
X156835968Y-89202778D01*
X156878911Y-89061214D01*
X156948647Y-88930748D01*
X156989583Y-88880867D01*
X157042494Y-88816393D01*
X157127061Y-88746992D01*
X157156849Y-88722546D01*
X157287315Y-88652810D01*
X157428879Y-88609867D01*
X157576100Y-88595367D01*
X157723322Y-88609867D01*
G37*
G36*
X149433123Y-88660590D02*
G01*
X149533782Y-88691125D01*
X149584113Y-88706392D01*
X149723265Y-88780771D01*
X149845233Y-88880867D01*
X149945329Y-89002835D01*
X150019708Y-89141987D01*
X150019708Y-89141988D01*
X150065510Y-89292977D01*
X150077100Y-89410655D01*
X150077100Y-90389345D01*
X150065510Y-90507023D01*
X150038149Y-90597219D01*
X150019708Y-90658013D01*
X149976533Y-90738787D01*
X149945329Y-90797165D01*
X149845233Y-90919133D01*
X149766671Y-90983606D01*
X149723264Y-91019229D01*
X149584112Y-91093608D01*
X149533781Y-91108875D01*
X149433122Y-91139410D01*
X149276100Y-91154875D01*
X149119077Y-91139410D01*
X149018418Y-91108875D01*
X148968087Y-91093608D01*
X148828935Y-91019229D01*
X148706967Y-90919133D01*
X148606871Y-90797164D01*
X148575667Y-90738786D01*
X148532492Y-90658012D01*
X148514051Y-90597219D01*
X148486690Y-90507022D01*
X148475100Y-90389344D01*
X148475100Y-89410655D01*
X148486691Y-89292977D01*
X148532493Y-89141988D01*
X148532493Y-89141987D01*
X148606872Y-89002835D01*
X148706968Y-88880867D01*
X148828936Y-88780771D01*
X148968088Y-88706392D01*
X149018419Y-88691125D01*
X149119078Y-88660590D01*
X149276100Y-88645125D01*
X149433123Y-88660590D01*
G37*
G36*
X146977100Y-91051000D02*
G01*
X145375100Y-91051000D01*
X145375100Y-88749000D01*
X146977100Y-88749000D01*
X146977100Y-91051000D01*
G37*
G36*
X152304865Y-82407220D02*
G01*
X152494388Y-82485723D01*
X152664954Y-82599692D01*
X152810008Y-82744746D01*
X152923977Y-82915312D01*
X153002480Y-83104835D01*
X153042500Y-83306031D01*
X153042500Y-83511169D01*
X153002480Y-83712365D01*
X152923977Y-83901888D01*
X152810008Y-84072454D01*
X152664954Y-84217508D01*
X152494388Y-84331477D01*
X152494387Y-84331478D01*
X152494386Y-84331478D01*
X152304865Y-84409980D01*
X152103670Y-84450000D01*
X151898530Y-84450000D01*
X151697335Y-84409980D01*
X151507814Y-84331478D01*
X151507813Y-84331478D01*
X151507812Y-84331477D01*
X151337246Y-84217508D01*
X151192192Y-84072454D01*
X151078223Y-83901888D01*
X150999720Y-83712365D01*
X150959700Y-83511169D01*
X150959700Y-83306031D01*
X150999720Y-83104835D01*
X151078223Y-82915312D01*
X151192192Y-82744746D01*
X151337246Y-82599692D01*
X151507812Y-82485723D01*
X151697335Y-82407220D01*
X151898530Y-82367200D01*
X152103670Y-82367200D01*
X152304865Y-82407220D01*
G37*
G36*
X147224865Y-82407220D02*
G01*
X147414388Y-82485723D01*
X147584954Y-82599692D01*
X147730008Y-82744746D01*
X147843977Y-82915312D01*
X147922480Y-83104835D01*
X147962500Y-83306031D01*
X147962500Y-83511169D01*
X147922480Y-83712365D01*
X147843977Y-83901888D01*
X147730008Y-84072454D01*
X147584954Y-84217508D01*
X147414388Y-84331477D01*
X147414387Y-84331478D01*
X147414386Y-84331478D01*
X147224865Y-84409980D01*
X147023670Y-84450000D01*
X146818530Y-84450000D01*
X146617335Y-84409980D01*
X146427814Y-84331478D01*
X146427813Y-84331478D01*
X146427812Y-84331477D01*
X146257246Y-84217508D01*
X146112192Y-84072454D01*
X145998223Y-83901888D01*
X145919720Y-83712365D01*
X145879700Y-83511169D01*
X145879700Y-83306031D01*
X145919720Y-83104835D01*
X145998223Y-82915312D01*
X146112192Y-82744746D01*
X146257246Y-82599692D01*
X146427812Y-82485723D01*
X146617335Y-82407220D01*
X146818530Y-82367200D01*
X147023670Y-82367200D01*
X147224865Y-82407220D01*
G37*
G36*
X149764865Y-82407220D02*
G01*
X149954388Y-82485723D01*
X150124954Y-82599692D01*
X150270008Y-82744746D01*
X150383977Y-82915312D01*
X150462480Y-83104835D01*
X150502500Y-83306031D01*
X150502500Y-83511169D01*
X150462480Y-83712365D01*
X150383977Y-83901888D01*
X150270008Y-84072454D01*
X150124954Y-84217508D01*
X149954388Y-84331477D01*
X149954387Y-84331478D01*
X149954386Y-84331478D01*
X149764865Y-84409980D01*
X149563670Y-84450000D01*
X149358530Y-84450000D01*
X149157335Y-84409980D01*
X148967814Y-84331478D01*
X148967813Y-84331478D01*
X148967812Y-84331477D01*
X148797246Y-84217508D01*
X148652192Y-84072454D01*
X148538223Y-83901888D01*
X148459720Y-83712365D01*
X148419700Y-83511169D01*
X148419700Y-83306031D01*
X148459720Y-83104835D01*
X148538223Y-82915312D01*
X148652192Y-82744746D01*
X148797246Y-82599692D01*
X148967812Y-82485723D01*
X149157335Y-82407220D01*
X149358530Y-82367200D01*
X149563670Y-82367200D01*
X149764865Y-82407220D01*
G37*
G36*
X157384865Y-82407220D02*
G01*
X157574388Y-82485723D01*
X157744954Y-82599692D01*
X157890008Y-82744746D01*
X158003977Y-82915312D01*
X158082480Y-83104835D01*
X158122500Y-83306031D01*
X158122500Y-83511169D01*
X158082480Y-83712365D01*
X158003977Y-83901888D01*
X157890008Y-84072454D01*
X157744954Y-84217508D01*
X157574388Y-84331477D01*
X157574387Y-84331478D01*
X157574386Y-84331478D01*
X157384865Y-84409980D01*
X157183670Y-84450000D01*
X156978530Y-84450000D01*
X156777335Y-84409980D01*
X156587814Y-84331478D01*
X156587813Y-84331478D01*
X156587812Y-84331477D01*
X156417246Y-84217508D01*
X156272192Y-84072454D01*
X156158223Y-83901888D01*
X156079720Y-83712365D01*
X156039700Y-83511169D01*
X156039700Y-83306031D01*
X156079720Y-83104835D01*
X156158223Y-82915312D01*
X156272192Y-82744746D01*
X156417246Y-82599692D01*
X156587812Y-82485723D01*
X156777335Y-82407220D01*
X156978530Y-82367200D01*
X157183670Y-82367200D01*
X157384865Y-82407220D01*
G37*
G36*
X154844865Y-82407220D02*
G01*
X155034388Y-82485723D01*
X155204954Y-82599692D01*
X155350008Y-82744746D01*
X155463977Y-82915312D01*
X155542480Y-83104835D01*
X155582500Y-83306031D01*
X155582500Y-83511169D01*
X155542480Y-83712365D01*
X155463977Y-83901888D01*
X155350008Y-84072454D01*
X155204954Y-84217508D01*
X155034388Y-84331477D01*
X155034387Y-84331478D01*
X155034386Y-84331478D01*
X154844865Y-84409980D01*
X154643670Y-84450000D01*
X154438530Y-84450000D01*
X154237335Y-84409980D01*
X154047814Y-84331478D01*
X154047813Y-84331478D01*
X154047812Y-84331477D01*
X153877246Y-84217508D01*
X153732192Y-84072454D01*
X153618223Y-83901888D01*
X153539720Y-83712365D01*
X153499700Y-83511169D01*
X153499700Y-83306031D01*
X153539720Y-83104835D01*
X153618223Y-82915312D01*
X153732192Y-82744746D01*
X153877246Y-82599692D01*
X154047812Y-82485723D01*
X154237335Y-82407220D01*
X154438530Y-82367200D01*
X154643670Y-82367200D01*
X154844865Y-82407220D01*
G37*
G36*
X154844865Y-79867220D02*
G01*
X155034388Y-79945723D01*
X155204954Y-80059692D01*
X155350008Y-80204746D01*
X155463977Y-80375312D01*
X155542480Y-80564835D01*
X155582500Y-80766031D01*
X155582500Y-80971169D01*
X155542480Y-81172365D01*
X155463977Y-81361888D01*
X155350008Y-81532454D01*
X155204954Y-81677508D01*
X155034388Y-81791477D01*
X155034387Y-81791478D01*
X155034386Y-81791478D01*
X154844865Y-81869980D01*
X154643670Y-81910000D01*
X154438530Y-81910000D01*
X154237335Y-81869980D01*
X154047814Y-81791478D01*
X154047813Y-81791478D01*
X154047812Y-81791477D01*
X153877246Y-81677508D01*
X153732192Y-81532454D01*
X153618223Y-81361888D01*
X153539720Y-81172365D01*
X153499700Y-80971169D01*
X153499700Y-80766031D01*
X153539720Y-80564835D01*
X153618223Y-80375312D01*
X153732192Y-80204746D01*
X153877246Y-80059692D01*
X154047812Y-79945723D01*
X154237335Y-79867220D01*
X154438530Y-79827200D01*
X154643670Y-79827200D01*
X154844865Y-79867220D01*
G37*
G36*
X152304865Y-79867220D02*
G01*
X152494388Y-79945723D01*
X152664954Y-80059692D01*
X152810008Y-80204746D01*
X152923977Y-80375312D01*
X153002480Y-80564835D01*
X153042500Y-80766031D01*
X153042500Y-80971169D01*
X153002480Y-81172365D01*
X152923977Y-81361888D01*
X152810008Y-81532454D01*
X152664954Y-81677508D01*
X152494388Y-81791477D01*
X152494387Y-81791478D01*
X152494386Y-81791478D01*
X152304865Y-81869980D01*
X152103670Y-81910000D01*
X151898530Y-81910000D01*
X151697335Y-81869980D01*
X151507814Y-81791478D01*
X151507813Y-81791478D01*
X151507812Y-81791477D01*
X151337246Y-81677508D01*
X151192192Y-81532454D01*
X151078223Y-81361888D01*
X150999720Y-81172365D01*
X150959700Y-80971169D01*
X150959700Y-80766031D01*
X150999720Y-80564835D01*
X151078223Y-80375312D01*
X151192192Y-80204746D01*
X151337246Y-80059692D01*
X151507812Y-79945723D01*
X151697335Y-79867220D01*
X151898530Y-79827200D01*
X152103670Y-79827200D01*
X152304865Y-79867220D01*
G37*
G36*
X149764865Y-79867220D02*
G01*
X149954388Y-79945723D01*
X150124954Y-80059692D01*
X150270008Y-80204746D01*
X150383977Y-80375312D01*
X150462480Y-80564835D01*
X150502500Y-80766031D01*
X150502500Y-80971169D01*
X150462480Y-81172365D01*
X150383977Y-81361888D01*
X150270008Y-81532454D01*
X150124954Y-81677508D01*
X149954388Y-81791477D01*
X149954387Y-81791478D01*
X149954386Y-81791478D01*
X149764865Y-81869980D01*
X149563670Y-81910000D01*
X149358530Y-81910000D01*
X149157335Y-81869980D01*
X148967814Y-81791478D01*
X148967813Y-81791478D01*
X148967812Y-81791477D01*
X148797246Y-81677508D01*
X148652192Y-81532454D01*
X148538223Y-81361888D01*
X148459720Y-81172365D01*
X148419700Y-80971169D01*
X148419700Y-80766031D01*
X148459720Y-80564835D01*
X148538223Y-80375312D01*
X148652192Y-80204746D01*
X148797246Y-80059692D01*
X148967812Y-79945723D01*
X149157335Y-79867220D01*
X149358530Y-79827200D01*
X149563670Y-79827200D01*
X149764865Y-79867220D01*
G37*
G36*
X147224865Y-79867220D02*
G01*
X147414388Y-79945723D01*
X147584954Y-80059692D01*
X147730008Y-80204746D01*
X147843977Y-80375312D01*
X147922480Y-80564835D01*
X147962500Y-80766031D01*
X147962500Y-80971169D01*
X147922480Y-81172365D01*
X147843977Y-81361888D01*
X147730008Y-81532454D01*
X147584954Y-81677508D01*
X147414388Y-81791477D01*
X147414387Y-81791478D01*
X147414386Y-81791478D01*
X147224865Y-81869980D01*
X147023670Y-81910000D01*
X146818530Y-81910000D01*
X146617335Y-81869980D01*
X146427814Y-81791478D01*
X146427813Y-81791478D01*
X146427812Y-81791477D01*
X146257246Y-81677508D01*
X146112192Y-81532454D01*
X145998223Y-81361888D01*
X145919720Y-81172365D01*
X145879700Y-80971169D01*
X145879700Y-80766031D01*
X145919720Y-80564835D01*
X145998223Y-80375312D01*
X146112192Y-80204746D01*
X146257246Y-80059692D01*
X146427812Y-79945723D01*
X146617335Y-79867220D01*
X146818530Y-79827200D01*
X147023670Y-79827200D01*
X147224865Y-79867220D01*
G37*
G36*
X157384865Y-79867220D02*
G01*
X157574388Y-79945723D01*
X157744954Y-80059692D01*
X157890008Y-80204746D01*
X158003977Y-80375312D01*
X158082480Y-80564835D01*
X158122500Y-80766031D01*
X158122500Y-80971169D01*
X158082480Y-81172365D01*
X158003977Y-81361888D01*
X157890008Y-81532454D01*
X157744954Y-81677508D01*
X157574388Y-81791477D01*
X157574387Y-81791478D01*
X157574386Y-81791478D01*
X157384865Y-81869980D01*
X157183670Y-81910000D01*
X156978530Y-81910000D01*
X156777335Y-81869980D01*
X156587814Y-81791478D01*
X156587813Y-81791478D01*
X156587812Y-81791477D01*
X156417246Y-81677508D01*
X156272192Y-81532454D01*
X156158223Y-81361888D01*
X156079720Y-81172365D01*
X156039700Y-80971169D01*
X156039700Y-80766031D01*
X156079720Y-80564835D01*
X156158223Y-80375312D01*
X156272192Y-80204746D01*
X156417246Y-80059692D01*
X156587812Y-79945723D01*
X156777335Y-79867220D01*
X156978530Y-79827200D01*
X157183670Y-79827200D01*
X157384865Y-79867220D01*
G37*
M02*
