G04 #@! TF.GenerationSoftware,KiCad,Pcbnew,5.1.5-52549c5~84~ubuntu18.04.1*
G04 #@! TF.CreationDate,2020-03-23T11:22:08-04:00*
G04 #@! TF.ProjectId,bbf-eurojacks-thonkiconn,6262662d-6575-4726-9f6a-61636b732d74,rev?*
G04 #@! TF.SameCoordinates,Original*
G04 #@! TF.FileFunction,Copper,L2,Bot*
G04 #@! TF.FilePolarity,Positive*
%FSLAX46Y46*%
G04 Gerber Fmt 4.6, Leading zero omitted, Abs format (unit mm)*
G04 Created by KiCad (PCBNEW 5.1.5-52549c5~84~ubuntu18.04.1) date 2020-03-23 11:22:08*
%MOMM*%
%LPD*%
G04 APERTURE LIST*
%ADD10C,1.879600*%
%ADD11O,1.500000X2.400000*%
%ADD12R,1.500000X2.200000*%
%ADD13O,1.400000X2.500000*%
%ADD14R,1.879600X1.879600*%
%ADD15C,0.254000*%
G04 APERTURE END LIST*
D10*
X157081100Y-126588600D03*
X157081100Y-129128600D03*
X154541100Y-126588600D03*
X154541100Y-129128600D03*
X152001100Y-126588600D03*
X152001100Y-129128600D03*
X149461100Y-126588600D03*
X149461100Y-129128600D03*
X146921100Y-126588600D03*
X146921100Y-129128600D03*
D11*
X149276100Y-120103600D03*
D12*
X146176100Y-120103600D03*
D13*
X157576100Y-120103600D03*
D11*
X149276100Y-110035732D03*
D12*
X146176100Y-110035732D03*
D13*
X157576100Y-110035732D03*
D11*
X149276100Y-99967866D03*
D12*
X146176100Y-99967866D03*
D13*
X157576100Y-99967866D03*
D11*
X149276100Y-89900000D03*
D12*
X146176100Y-89900000D03*
D13*
X157576100Y-89900000D03*
D10*
X157081100Y-80868600D03*
X157081100Y-83408600D03*
X154541100Y-80868600D03*
X154541100Y-83408600D03*
X152001100Y-80868600D03*
X152001100Y-83408600D03*
X149461100Y-80868600D03*
X149461100Y-83408600D03*
X146921100Y-80868600D03*
X146921100Y-83408600D03*
X142786100Y-96108600D03*
X142786100Y-98648600D03*
X142786100Y-101188600D03*
X142786100Y-103728600D03*
X142786100Y-106268600D03*
X142786100Y-108808600D03*
X142786100Y-111348600D03*
D14*
X142786100Y-113888600D03*
D15*
G36*
X145917223Y-79645373D02*
G01*
X145697873Y-79864723D01*
X145525530Y-80122652D01*
X145406818Y-80409248D01*
X145346300Y-80713496D01*
X145346300Y-81023704D01*
X145406818Y-81327952D01*
X145525530Y-81614548D01*
X145697873Y-81872477D01*
X145917223Y-82091827D01*
X146053814Y-82183095D01*
X146008229Y-82316124D01*
X146921100Y-83228995D01*
X147833971Y-82316124D01*
X147788386Y-82183095D01*
X147924977Y-82091827D01*
X148144327Y-81872477D01*
X148191100Y-81802476D01*
X148237873Y-81872477D01*
X148457223Y-82091827D01*
X148593814Y-82183095D01*
X148548229Y-82316124D01*
X149461100Y-83228995D01*
X150373971Y-82316124D01*
X150328386Y-82183095D01*
X150464977Y-82091827D01*
X150684327Y-81872477D01*
X150731100Y-81802476D01*
X150777873Y-81872477D01*
X150997223Y-82091827D01*
X151133814Y-82183095D01*
X151088229Y-82316124D01*
X152001100Y-83228995D01*
X152913971Y-82316124D01*
X152868386Y-82183095D01*
X153004977Y-82091827D01*
X153224327Y-81872477D01*
X153271100Y-81802476D01*
X153317873Y-81872477D01*
X153537223Y-82091827D01*
X153673814Y-82183095D01*
X153628229Y-82316124D01*
X154541100Y-83228995D01*
X155453971Y-82316124D01*
X155408386Y-82183095D01*
X155544977Y-82091827D01*
X155764327Y-81872477D01*
X155811100Y-81802476D01*
X155857873Y-81872477D01*
X156077223Y-82091827D01*
X156213814Y-82183095D01*
X156168229Y-82316124D01*
X157081100Y-83228995D01*
X157993971Y-82316124D01*
X157948386Y-82183095D01*
X158084977Y-82091827D01*
X158304327Y-81872477D01*
X158476670Y-81614548D01*
X158595382Y-81327952D01*
X158655900Y-81023704D01*
X158655900Y-80713496D01*
X158595382Y-80409248D01*
X158476670Y-80122652D01*
X158304327Y-79864723D01*
X158099771Y-79660167D01*
X158100364Y-79660225D01*
X158330514Y-79729711D01*
X158542788Y-79842579D01*
X158729095Y-79994528D01*
X158882337Y-80179765D01*
X158996683Y-80391244D01*
X159067776Y-80620908D01*
X159096101Y-80890403D01*
X159096100Y-129096323D01*
X159069285Y-129369805D01*
X158999233Y-129601826D01*
X158885450Y-129815822D01*
X158732269Y-130003639D01*
X158545524Y-130158129D01*
X158332331Y-130273402D01*
X158100801Y-130345072D01*
X158090667Y-130346137D01*
X158304327Y-130132477D01*
X158476670Y-129874548D01*
X158595382Y-129587952D01*
X158655900Y-129283704D01*
X158655900Y-128973496D01*
X158595382Y-128669248D01*
X158476670Y-128382652D01*
X158304327Y-128124723D01*
X158084977Y-127905373D01*
X157948386Y-127814105D01*
X157993971Y-127681076D01*
X157081100Y-126768205D01*
X156168229Y-127681076D01*
X156213814Y-127814105D01*
X156077223Y-127905373D01*
X155857873Y-128124723D01*
X155811100Y-128194724D01*
X155764327Y-128124723D01*
X155544977Y-127905373D01*
X155408386Y-127814105D01*
X155453971Y-127681076D01*
X154541100Y-126768205D01*
X153628229Y-127681076D01*
X153673814Y-127814105D01*
X153537223Y-127905373D01*
X153317873Y-128124723D01*
X153271100Y-128194724D01*
X153224327Y-128124723D01*
X153004977Y-127905373D01*
X152868386Y-127814105D01*
X152913971Y-127681076D01*
X152001100Y-126768205D01*
X151088229Y-127681076D01*
X151133814Y-127814105D01*
X150997223Y-127905373D01*
X150777873Y-128124723D01*
X150731100Y-128194724D01*
X150684327Y-128124723D01*
X150464977Y-127905373D01*
X150328386Y-127814105D01*
X150373971Y-127681076D01*
X149461100Y-126768205D01*
X148548229Y-127681076D01*
X148593814Y-127814105D01*
X148457223Y-127905373D01*
X148237873Y-128124723D01*
X148191100Y-128194724D01*
X148144327Y-128124723D01*
X147924977Y-127905373D01*
X147788386Y-127814105D01*
X147833971Y-127681076D01*
X146921100Y-126768205D01*
X146008229Y-127681076D01*
X146053814Y-127814105D01*
X145917223Y-127905373D01*
X145697873Y-128124723D01*
X145525530Y-128382652D01*
X145406818Y-128669248D01*
X145346300Y-128973496D01*
X145346300Y-129283704D01*
X145406818Y-129587952D01*
X145525530Y-129874548D01*
X145697873Y-130132477D01*
X145917223Y-130351827D01*
X145949809Y-130373600D01*
X142183377Y-130373600D01*
X141909895Y-130346785D01*
X141677874Y-130276733D01*
X141463878Y-130162950D01*
X141276061Y-130009769D01*
X141121571Y-129823024D01*
X141006298Y-129609831D01*
X140934628Y-129378301D01*
X140906100Y-129106876D01*
X140906100Y-126653577D01*
X145340016Y-126653577D01*
X145383073Y-126960784D01*
X145485235Y-127253686D01*
X145570377Y-127412977D01*
X145828624Y-127501471D01*
X146741495Y-126588600D01*
X147100705Y-126588600D01*
X148013576Y-127501471D01*
X148191100Y-127440639D01*
X148368624Y-127501471D01*
X149281495Y-126588600D01*
X149640705Y-126588600D01*
X150553576Y-127501471D01*
X150731100Y-127440639D01*
X150908624Y-127501471D01*
X151821495Y-126588600D01*
X152180705Y-126588600D01*
X153093576Y-127501471D01*
X153271100Y-127440639D01*
X153448624Y-127501471D01*
X154361495Y-126588600D01*
X154720705Y-126588600D01*
X155633576Y-127501471D01*
X155811100Y-127440639D01*
X155988624Y-127501471D01*
X156901495Y-126588600D01*
X157260705Y-126588600D01*
X158173576Y-127501471D01*
X158431823Y-127412977D01*
X158566697Y-127133624D01*
X158644481Y-126833325D01*
X158662184Y-126523623D01*
X158619127Y-126216416D01*
X158516965Y-125923514D01*
X158431823Y-125764223D01*
X158173576Y-125675729D01*
X157260705Y-126588600D01*
X156901495Y-126588600D01*
X155988624Y-125675729D01*
X155811100Y-125736561D01*
X155633576Y-125675729D01*
X154720705Y-126588600D01*
X154361495Y-126588600D01*
X153448624Y-125675729D01*
X153271100Y-125736561D01*
X153093576Y-125675729D01*
X152180705Y-126588600D01*
X151821495Y-126588600D01*
X150908624Y-125675729D01*
X150731100Y-125736561D01*
X150553576Y-125675729D01*
X149640705Y-126588600D01*
X149281495Y-126588600D01*
X148368624Y-125675729D01*
X148191100Y-125736561D01*
X148013576Y-125675729D01*
X147100705Y-126588600D01*
X146741495Y-126588600D01*
X145828624Y-125675729D01*
X145570377Y-125764223D01*
X145435503Y-126043576D01*
X145357719Y-126343875D01*
X145340016Y-126653577D01*
X140906100Y-126653577D01*
X140906100Y-125496124D01*
X146008229Y-125496124D01*
X146921100Y-126408995D01*
X147833971Y-125496124D01*
X148548229Y-125496124D01*
X149461100Y-126408995D01*
X150373971Y-125496124D01*
X151088229Y-125496124D01*
X152001100Y-126408995D01*
X152913971Y-125496124D01*
X153628229Y-125496124D01*
X154541100Y-126408995D01*
X155453971Y-125496124D01*
X156168229Y-125496124D01*
X157081100Y-126408995D01*
X157993971Y-125496124D01*
X157905477Y-125237877D01*
X157626124Y-125103003D01*
X157325825Y-125025219D01*
X157016123Y-125007516D01*
X156708916Y-125050573D01*
X156416014Y-125152735D01*
X156256723Y-125237877D01*
X156168229Y-125496124D01*
X155453971Y-125496124D01*
X155365477Y-125237877D01*
X155086124Y-125103003D01*
X154785825Y-125025219D01*
X154476123Y-125007516D01*
X154168916Y-125050573D01*
X153876014Y-125152735D01*
X153716723Y-125237877D01*
X153628229Y-125496124D01*
X152913971Y-125496124D01*
X152825477Y-125237877D01*
X152546124Y-125103003D01*
X152245825Y-125025219D01*
X151936123Y-125007516D01*
X151628916Y-125050573D01*
X151336014Y-125152735D01*
X151176723Y-125237877D01*
X151088229Y-125496124D01*
X150373971Y-125496124D01*
X150285477Y-125237877D01*
X150006124Y-125103003D01*
X149705825Y-125025219D01*
X149396123Y-125007516D01*
X149088916Y-125050573D01*
X148796014Y-125152735D01*
X148636723Y-125237877D01*
X148548229Y-125496124D01*
X147833971Y-125496124D01*
X147745477Y-125237877D01*
X147466124Y-125103003D01*
X147165825Y-125025219D01*
X146856123Y-125007516D01*
X146548916Y-125050573D01*
X146256014Y-125152735D01*
X146096723Y-125237877D01*
X146008229Y-125496124D01*
X140906100Y-125496124D01*
X140906100Y-121203600D01*
X144788028Y-121203600D01*
X144800288Y-121328082D01*
X144836598Y-121447780D01*
X144895563Y-121558094D01*
X144974915Y-121654785D01*
X145071606Y-121734137D01*
X145181920Y-121793102D01*
X145301618Y-121829412D01*
X145426100Y-121841672D01*
X145890350Y-121838600D01*
X146049100Y-121679850D01*
X146049100Y-120230600D01*
X146303100Y-120230600D01*
X146303100Y-121679850D01*
X146461850Y-121838600D01*
X146926100Y-121841672D01*
X147050582Y-121829412D01*
X147170280Y-121793102D01*
X147280594Y-121734137D01*
X147377285Y-121654785D01*
X147456637Y-121558094D01*
X147515602Y-121447780D01*
X147551912Y-121328082D01*
X147564172Y-121203600D01*
X147561100Y-120389350D01*
X147402350Y-120230600D01*
X146303100Y-120230600D01*
X146049100Y-120230600D01*
X144949850Y-120230600D01*
X144791100Y-120389350D01*
X144788028Y-121203600D01*
X140906100Y-121203600D01*
X140906100Y-119003600D01*
X144788028Y-119003600D01*
X144791100Y-119817850D01*
X144949850Y-119976600D01*
X146049100Y-119976600D01*
X146049100Y-118527350D01*
X146303100Y-118527350D01*
X146303100Y-119976600D01*
X147402350Y-119976600D01*
X147561100Y-119817850D01*
X147561976Y-119585563D01*
X147891100Y-119585563D01*
X147891100Y-120621636D01*
X147911140Y-120825106D01*
X147990336Y-121086180D01*
X148118943Y-121326787D01*
X148292019Y-121537680D01*
X148502912Y-121710757D01*
X148743519Y-121839364D01*
X149004593Y-121918560D01*
X149276100Y-121945301D01*
X149547606Y-121918560D01*
X149808680Y-121839364D01*
X150049287Y-121710757D01*
X150260180Y-121537681D01*
X150433257Y-121326788D01*
X150561864Y-121086181D01*
X150641060Y-120825107D01*
X150661100Y-120621637D01*
X150661100Y-119585564D01*
X150651493Y-119488021D01*
X156241100Y-119488021D01*
X156241100Y-120719178D01*
X156260417Y-120915305D01*
X156336753Y-121166953D01*
X156460718Y-121398874D01*
X156627545Y-121602155D01*
X156830825Y-121768982D01*
X157062746Y-121892947D01*
X157314394Y-121969283D01*
X157576100Y-121995059D01*
X157837805Y-121969283D01*
X158089453Y-121892947D01*
X158321374Y-121768982D01*
X158524655Y-121602155D01*
X158691482Y-121398875D01*
X158815447Y-121166954D01*
X158891783Y-120915306D01*
X158911100Y-120719179D01*
X158911100Y-119488021D01*
X158891783Y-119291894D01*
X158815447Y-119040246D01*
X158691482Y-118808325D01*
X158524655Y-118605045D01*
X158321375Y-118438218D01*
X158089454Y-118314253D01*
X157837806Y-118237917D01*
X157576100Y-118212141D01*
X157314395Y-118237917D01*
X157062747Y-118314253D01*
X156830826Y-118438218D01*
X156627546Y-118605045D01*
X156460718Y-118808325D01*
X156336753Y-119040246D01*
X156260417Y-119291894D01*
X156241100Y-119488021D01*
X150651493Y-119488021D01*
X150641060Y-119382093D01*
X150561864Y-119121019D01*
X150433257Y-118880412D01*
X150260181Y-118669519D01*
X150049288Y-118496443D01*
X149808681Y-118367836D01*
X149547607Y-118288640D01*
X149276100Y-118261899D01*
X149004594Y-118288640D01*
X148743520Y-118367836D01*
X148502913Y-118496443D01*
X148292020Y-118669519D01*
X148118943Y-118880412D01*
X147990336Y-119121019D01*
X147911140Y-119382093D01*
X147891100Y-119585563D01*
X147561976Y-119585563D01*
X147564172Y-119003600D01*
X147551912Y-118879118D01*
X147515602Y-118759420D01*
X147456637Y-118649106D01*
X147377285Y-118552415D01*
X147280594Y-118473063D01*
X147170280Y-118414098D01*
X147050582Y-118377788D01*
X146926100Y-118365528D01*
X146461850Y-118368600D01*
X146303100Y-118527350D01*
X146049100Y-118527350D01*
X145890350Y-118368600D01*
X145426100Y-118365528D01*
X145301618Y-118377788D01*
X145181920Y-118414098D01*
X145071606Y-118473063D01*
X144974915Y-118552415D01*
X144895563Y-118649106D01*
X144836598Y-118759420D01*
X144800288Y-118879118D01*
X144788028Y-119003600D01*
X140906100Y-119003600D01*
X140906100Y-112948800D01*
X141208228Y-112948800D01*
X141208228Y-114828400D01*
X141220488Y-114952882D01*
X141256798Y-115072580D01*
X141315763Y-115182894D01*
X141395115Y-115279585D01*
X141491806Y-115358937D01*
X141602120Y-115417902D01*
X141721818Y-115454212D01*
X141846300Y-115466472D01*
X143725900Y-115466472D01*
X143850382Y-115454212D01*
X143970080Y-115417902D01*
X144080394Y-115358937D01*
X144177085Y-115279585D01*
X144256437Y-115182894D01*
X144315402Y-115072580D01*
X144351712Y-114952882D01*
X144363972Y-114828400D01*
X144363972Y-112948800D01*
X144351712Y-112824318D01*
X144315402Y-112704620D01*
X144256437Y-112594306D01*
X144177085Y-112497615D01*
X144080394Y-112418263D01*
X143991211Y-112370593D01*
X144009327Y-112352477D01*
X144181670Y-112094548D01*
X144300382Y-111807952D01*
X144360900Y-111503704D01*
X144360900Y-111193496D01*
X144349411Y-111135732D01*
X144788028Y-111135732D01*
X144800288Y-111260214D01*
X144836598Y-111379912D01*
X144895563Y-111490226D01*
X144974915Y-111586917D01*
X145071606Y-111666269D01*
X145181920Y-111725234D01*
X145301618Y-111761544D01*
X145426100Y-111773804D01*
X145890350Y-111770732D01*
X146049100Y-111611982D01*
X146049100Y-110162732D01*
X146303100Y-110162732D01*
X146303100Y-111611982D01*
X146461850Y-111770732D01*
X146926100Y-111773804D01*
X147050582Y-111761544D01*
X147170280Y-111725234D01*
X147280594Y-111666269D01*
X147377285Y-111586917D01*
X147456637Y-111490226D01*
X147515602Y-111379912D01*
X147551912Y-111260214D01*
X147564172Y-111135732D01*
X147561100Y-110321482D01*
X147402350Y-110162732D01*
X146303100Y-110162732D01*
X146049100Y-110162732D01*
X144949850Y-110162732D01*
X144791100Y-110321482D01*
X144788028Y-111135732D01*
X144349411Y-111135732D01*
X144300382Y-110889248D01*
X144181670Y-110602652D01*
X144009327Y-110344723D01*
X143789977Y-110125373D01*
X143719976Y-110078600D01*
X143789977Y-110031827D01*
X144009327Y-109812477D01*
X144181670Y-109554548D01*
X144300382Y-109267952D01*
X144360900Y-108963704D01*
X144360900Y-108935732D01*
X144788028Y-108935732D01*
X144791100Y-109749982D01*
X144949850Y-109908732D01*
X146049100Y-109908732D01*
X146049100Y-108459482D01*
X146303100Y-108459482D01*
X146303100Y-109908732D01*
X147402350Y-109908732D01*
X147561100Y-109749982D01*
X147561976Y-109517695D01*
X147891100Y-109517695D01*
X147891100Y-110553768D01*
X147911140Y-110757238D01*
X147990336Y-111018312D01*
X148118943Y-111258919D01*
X148292019Y-111469812D01*
X148502912Y-111642889D01*
X148743519Y-111771496D01*
X149004593Y-111850692D01*
X149276100Y-111877433D01*
X149547606Y-111850692D01*
X149808680Y-111771496D01*
X150049287Y-111642889D01*
X150260180Y-111469813D01*
X150433257Y-111258920D01*
X150561864Y-111018313D01*
X150641060Y-110757239D01*
X150661100Y-110553769D01*
X150661100Y-109517696D01*
X150651493Y-109420153D01*
X156241100Y-109420153D01*
X156241100Y-110651310D01*
X156260417Y-110847437D01*
X156336753Y-111099085D01*
X156460718Y-111331006D01*
X156627545Y-111534287D01*
X156830825Y-111701114D01*
X157062746Y-111825079D01*
X157314394Y-111901415D01*
X157576100Y-111927191D01*
X157837805Y-111901415D01*
X158089453Y-111825079D01*
X158321374Y-111701114D01*
X158524655Y-111534287D01*
X158691482Y-111331007D01*
X158815447Y-111099086D01*
X158891783Y-110847438D01*
X158911100Y-110651311D01*
X158911100Y-109420153D01*
X158891783Y-109224026D01*
X158815447Y-108972378D01*
X158691482Y-108740457D01*
X158524655Y-108537177D01*
X158321375Y-108370350D01*
X158089454Y-108246385D01*
X157837806Y-108170049D01*
X157576100Y-108144273D01*
X157314395Y-108170049D01*
X157062747Y-108246385D01*
X156830826Y-108370350D01*
X156627546Y-108537177D01*
X156460718Y-108740457D01*
X156336753Y-108972378D01*
X156260417Y-109224026D01*
X156241100Y-109420153D01*
X150651493Y-109420153D01*
X150641060Y-109314225D01*
X150561864Y-109053151D01*
X150433257Y-108812544D01*
X150260181Y-108601651D01*
X150049288Y-108428575D01*
X149808681Y-108299968D01*
X149547607Y-108220772D01*
X149276100Y-108194031D01*
X149004594Y-108220772D01*
X148743520Y-108299968D01*
X148502913Y-108428575D01*
X148292020Y-108601651D01*
X148118943Y-108812544D01*
X147990336Y-109053151D01*
X147911140Y-109314225D01*
X147891100Y-109517695D01*
X147561976Y-109517695D01*
X147564172Y-108935732D01*
X147551912Y-108811250D01*
X147515602Y-108691552D01*
X147456637Y-108581238D01*
X147377285Y-108484547D01*
X147280594Y-108405195D01*
X147170280Y-108346230D01*
X147050582Y-108309920D01*
X146926100Y-108297660D01*
X146461850Y-108300732D01*
X146303100Y-108459482D01*
X146049100Y-108459482D01*
X145890350Y-108300732D01*
X145426100Y-108297660D01*
X145301618Y-108309920D01*
X145181920Y-108346230D01*
X145071606Y-108405195D01*
X144974915Y-108484547D01*
X144895563Y-108581238D01*
X144836598Y-108691552D01*
X144800288Y-108811250D01*
X144788028Y-108935732D01*
X144360900Y-108935732D01*
X144360900Y-108653496D01*
X144300382Y-108349248D01*
X144181670Y-108062652D01*
X144009327Y-107804723D01*
X143789977Y-107585373D01*
X143719976Y-107538600D01*
X143789977Y-107491827D01*
X144009327Y-107272477D01*
X144181670Y-107014548D01*
X144300382Y-106727952D01*
X144360900Y-106423704D01*
X144360900Y-106113496D01*
X144300382Y-105809248D01*
X144181670Y-105522652D01*
X144009327Y-105264723D01*
X143789977Y-105045373D01*
X143719976Y-104998600D01*
X143789977Y-104951827D01*
X144009327Y-104732477D01*
X144181670Y-104474548D01*
X144300382Y-104187952D01*
X144360900Y-103883704D01*
X144360900Y-103573496D01*
X144300382Y-103269248D01*
X144181670Y-102982652D01*
X144009327Y-102724723D01*
X143789977Y-102505373D01*
X143719976Y-102458600D01*
X143789977Y-102411827D01*
X144009327Y-102192477D01*
X144181670Y-101934548D01*
X144300382Y-101647952D01*
X144360900Y-101343704D01*
X144360900Y-101067866D01*
X144788028Y-101067866D01*
X144800288Y-101192348D01*
X144836598Y-101312046D01*
X144895563Y-101422360D01*
X144974915Y-101519051D01*
X145071606Y-101598403D01*
X145181920Y-101657368D01*
X145301618Y-101693678D01*
X145426100Y-101705938D01*
X145890350Y-101702866D01*
X146049100Y-101544116D01*
X146049100Y-100094866D01*
X146303100Y-100094866D01*
X146303100Y-101544116D01*
X146461850Y-101702866D01*
X146926100Y-101705938D01*
X147050582Y-101693678D01*
X147170280Y-101657368D01*
X147280594Y-101598403D01*
X147377285Y-101519051D01*
X147456637Y-101422360D01*
X147515602Y-101312046D01*
X147551912Y-101192348D01*
X147564172Y-101067866D01*
X147561100Y-100253616D01*
X147402350Y-100094866D01*
X146303100Y-100094866D01*
X146049100Y-100094866D01*
X144949850Y-100094866D01*
X144791100Y-100253616D01*
X144788028Y-101067866D01*
X144360900Y-101067866D01*
X144360900Y-101033496D01*
X144300382Y-100729248D01*
X144181670Y-100442652D01*
X144009327Y-100184723D01*
X143789977Y-99965373D01*
X143719976Y-99918600D01*
X143789977Y-99871827D01*
X144009327Y-99652477D01*
X144181670Y-99394548D01*
X144300382Y-99107952D01*
X144348137Y-98867866D01*
X144788028Y-98867866D01*
X144791100Y-99682116D01*
X144949850Y-99840866D01*
X146049100Y-99840866D01*
X146049100Y-98391616D01*
X146303100Y-98391616D01*
X146303100Y-99840866D01*
X147402350Y-99840866D01*
X147561100Y-99682116D01*
X147561976Y-99449829D01*
X147891100Y-99449829D01*
X147891100Y-100485902D01*
X147911140Y-100689372D01*
X147990336Y-100950446D01*
X148118943Y-101191053D01*
X148292019Y-101401946D01*
X148502912Y-101575023D01*
X148743519Y-101703630D01*
X149004593Y-101782826D01*
X149276100Y-101809567D01*
X149547606Y-101782826D01*
X149808680Y-101703630D01*
X150049287Y-101575023D01*
X150260180Y-101401947D01*
X150433257Y-101191054D01*
X150561864Y-100950447D01*
X150641060Y-100689373D01*
X150661100Y-100485903D01*
X150661100Y-99449830D01*
X150651493Y-99352287D01*
X156241100Y-99352287D01*
X156241100Y-100583444D01*
X156260417Y-100779571D01*
X156336753Y-101031219D01*
X156460718Y-101263140D01*
X156627545Y-101466421D01*
X156830825Y-101633248D01*
X157062746Y-101757213D01*
X157314394Y-101833549D01*
X157576100Y-101859325D01*
X157837805Y-101833549D01*
X158089453Y-101757213D01*
X158321374Y-101633248D01*
X158524655Y-101466421D01*
X158691482Y-101263141D01*
X158815447Y-101031220D01*
X158891783Y-100779572D01*
X158911100Y-100583445D01*
X158911100Y-99352287D01*
X158891783Y-99156160D01*
X158815447Y-98904512D01*
X158691482Y-98672591D01*
X158524655Y-98469311D01*
X158321375Y-98302484D01*
X158089454Y-98178519D01*
X157837806Y-98102183D01*
X157576100Y-98076407D01*
X157314395Y-98102183D01*
X157062747Y-98178519D01*
X156830826Y-98302484D01*
X156627546Y-98469311D01*
X156460718Y-98672591D01*
X156336753Y-98904512D01*
X156260417Y-99156160D01*
X156241100Y-99352287D01*
X150651493Y-99352287D01*
X150641060Y-99246359D01*
X150561864Y-98985285D01*
X150433257Y-98744678D01*
X150260181Y-98533785D01*
X150049288Y-98360709D01*
X149808681Y-98232102D01*
X149547607Y-98152906D01*
X149276100Y-98126165D01*
X149004594Y-98152906D01*
X148743520Y-98232102D01*
X148502913Y-98360709D01*
X148292020Y-98533785D01*
X148118943Y-98744678D01*
X147990336Y-98985285D01*
X147911140Y-99246359D01*
X147891100Y-99449829D01*
X147561976Y-99449829D01*
X147564172Y-98867866D01*
X147551912Y-98743384D01*
X147515602Y-98623686D01*
X147456637Y-98513372D01*
X147377285Y-98416681D01*
X147280594Y-98337329D01*
X147170280Y-98278364D01*
X147050582Y-98242054D01*
X146926100Y-98229794D01*
X146461850Y-98232866D01*
X146303100Y-98391616D01*
X146049100Y-98391616D01*
X145890350Y-98232866D01*
X145426100Y-98229794D01*
X145301618Y-98242054D01*
X145181920Y-98278364D01*
X145071606Y-98337329D01*
X144974915Y-98416681D01*
X144895563Y-98513372D01*
X144836598Y-98623686D01*
X144800288Y-98743384D01*
X144788028Y-98867866D01*
X144348137Y-98867866D01*
X144360900Y-98803704D01*
X144360900Y-98493496D01*
X144300382Y-98189248D01*
X144181670Y-97902652D01*
X144009327Y-97644723D01*
X143789977Y-97425373D01*
X143719976Y-97378600D01*
X143789977Y-97331827D01*
X144009327Y-97112477D01*
X144181670Y-96854548D01*
X144300382Y-96567952D01*
X144360900Y-96263704D01*
X144360900Y-95953496D01*
X144300382Y-95649248D01*
X144181670Y-95362652D01*
X144009327Y-95104723D01*
X143789977Y-94885373D01*
X143532048Y-94713030D01*
X143245452Y-94594318D01*
X142941204Y-94533800D01*
X142630996Y-94533800D01*
X142326748Y-94594318D01*
X142040152Y-94713030D01*
X141782223Y-94885373D01*
X141562873Y-95104723D01*
X141390530Y-95362652D01*
X141271818Y-95649248D01*
X141211300Y-95953496D01*
X141211300Y-96263704D01*
X141271818Y-96567952D01*
X141390530Y-96854548D01*
X141562873Y-97112477D01*
X141782223Y-97331827D01*
X141852224Y-97378600D01*
X141782223Y-97425373D01*
X141562873Y-97644723D01*
X141390530Y-97902652D01*
X141271818Y-98189248D01*
X141211300Y-98493496D01*
X141211300Y-98803704D01*
X141271818Y-99107952D01*
X141390530Y-99394548D01*
X141562873Y-99652477D01*
X141782223Y-99871827D01*
X141852224Y-99918600D01*
X141782223Y-99965373D01*
X141562873Y-100184723D01*
X141390530Y-100442652D01*
X141271818Y-100729248D01*
X141211300Y-101033496D01*
X141211300Y-101343704D01*
X141271818Y-101647952D01*
X141390530Y-101934548D01*
X141562873Y-102192477D01*
X141782223Y-102411827D01*
X141852224Y-102458600D01*
X141782223Y-102505373D01*
X141562873Y-102724723D01*
X141390530Y-102982652D01*
X141271818Y-103269248D01*
X141211300Y-103573496D01*
X141211300Y-103883704D01*
X141271818Y-104187952D01*
X141390530Y-104474548D01*
X141562873Y-104732477D01*
X141782223Y-104951827D01*
X141852224Y-104998600D01*
X141782223Y-105045373D01*
X141562873Y-105264723D01*
X141390530Y-105522652D01*
X141271818Y-105809248D01*
X141211300Y-106113496D01*
X141211300Y-106423704D01*
X141271818Y-106727952D01*
X141390530Y-107014548D01*
X141562873Y-107272477D01*
X141782223Y-107491827D01*
X141852224Y-107538600D01*
X141782223Y-107585373D01*
X141562873Y-107804723D01*
X141390530Y-108062652D01*
X141271818Y-108349248D01*
X141211300Y-108653496D01*
X141211300Y-108963704D01*
X141271818Y-109267952D01*
X141390530Y-109554548D01*
X141562873Y-109812477D01*
X141782223Y-110031827D01*
X141852224Y-110078600D01*
X141782223Y-110125373D01*
X141562873Y-110344723D01*
X141390530Y-110602652D01*
X141271818Y-110889248D01*
X141211300Y-111193496D01*
X141211300Y-111503704D01*
X141271818Y-111807952D01*
X141390530Y-112094548D01*
X141562873Y-112352477D01*
X141580989Y-112370593D01*
X141491806Y-112418263D01*
X141395115Y-112497615D01*
X141315763Y-112594306D01*
X141256798Y-112704620D01*
X141220488Y-112824318D01*
X141208228Y-112948800D01*
X140906100Y-112948800D01*
X140906100Y-91000000D01*
X144788028Y-91000000D01*
X144800288Y-91124482D01*
X144836598Y-91244180D01*
X144895563Y-91354494D01*
X144974915Y-91451185D01*
X145071606Y-91530537D01*
X145181920Y-91589502D01*
X145301618Y-91625812D01*
X145426100Y-91638072D01*
X145890350Y-91635000D01*
X146049100Y-91476250D01*
X146049100Y-90027000D01*
X146303100Y-90027000D01*
X146303100Y-91476250D01*
X146461850Y-91635000D01*
X146926100Y-91638072D01*
X147050582Y-91625812D01*
X147170280Y-91589502D01*
X147280594Y-91530537D01*
X147377285Y-91451185D01*
X147456637Y-91354494D01*
X147515602Y-91244180D01*
X147551912Y-91124482D01*
X147564172Y-91000000D01*
X147561100Y-90185750D01*
X147402350Y-90027000D01*
X146303100Y-90027000D01*
X146049100Y-90027000D01*
X144949850Y-90027000D01*
X144791100Y-90185750D01*
X144788028Y-91000000D01*
X140906100Y-91000000D01*
X140906100Y-88800000D01*
X144788028Y-88800000D01*
X144791100Y-89614250D01*
X144949850Y-89773000D01*
X146049100Y-89773000D01*
X146049100Y-88323750D01*
X146303100Y-88323750D01*
X146303100Y-89773000D01*
X147402350Y-89773000D01*
X147561100Y-89614250D01*
X147561976Y-89381963D01*
X147891100Y-89381963D01*
X147891100Y-90418036D01*
X147911140Y-90621506D01*
X147990336Y-90882580D01*
X148118943Y-91123187D01*
X148292019Y-91334080D01*
X148502912Y-91507157D01*
X148743519Y-91635764D01*
X149004593Y-91714960D01*
X149276100Y-91741701D01*
X149547606Y-91714960D01*
X149808680Y-91635764D01*
X150049287Y-91507157D01*
X150260180Y-91334081D01*
X150433257Y-91123188D01*
X150561864Y-90882581D01*
X150641060Y-90621507D01*
X150661100Y-90418037D01*
X150661100Y-89381964D01*
X150651493Y-89284421D01*
X156241100Y-89284421D01*
X156241100Y-90515578D01*
X156260417Y-90711705D01*
X156336753Y-90963353D01*
X156460718Y-91195274D01*
X156627545Y-91398555D01*
X156830825Y-91565382D01*
X157062746Y-91689347D01*
X157314394Y-91765683D01*
X157576100Y-91791459D01*
X157837805Y-91765683D01*
X158089453Y-91689347D01*
X158321374Y-91565382D01*
X158524655Y-91398555D01*
X158691482Y-91195275D01*
X158815447Y-90963354D01*
X158891783Y-90711706D01*
X158911100Y-90515579D01*
X158911100Y-89284421D01*
X158891783Y-89088294D01*
X158815447Y-88836646D01*
X158691482Y-88604725D01*
X158524655Y-88401445D01*
X158321375Y-88234618D01*
X158089454Y-88110653D01*
X157837806Y-88034317D01*
X157576100Y-88008541D01*
X157314395Y-88034317D01*
X157062747Y-88110653D01*
X156830826Y-88234618D01*
X156627546Y-88401445D01*
X156460718Y-88604725D01*
X156336753Y-88836646D01*
X156260417Y-89088294D01*
X156241100Y-89284421D01*
X150651493Y-89284421D01*
X150641060Y-89178493D01*
X150561864Y-88917419D01*
X150433257Y-88676812D01*
X150260181Y-88465919D01*
X150049288Y-88292843D01*
X149808681Y-88164236D01*
X149547607Y-88085040D01*
X149276100Y-88058299D01*
X149004594Y-88085040D01*
X148743520Y-88164236D01*
X148502913Y-88292843D01*
X148292020Y-88465919D01*
X148118943Y-88676812D01*
X147990336Y-88917419D01*
X147911140Y-89178493D01*
X147891100Y-89381963D01*
X147561976Y-89381963D01*
X147564172Y-88800000D01*
X147551912Y-88675518D01*
X147515602Y-88555820D01*
X147456637Y-88445506D01*
X147377285Y-88348815D01*
X147280594Y-88269463D01*
X147170280Y-88210498D01*
X147050582Y-88174188D01*
X146926100Y-88161928D01*
X146461850Y-88165000D01*
X146303100Y-88323750D01*
X146049100Y-88323750D01*
X145890350Y-88165000D01*
X145426100Y-88161928D01*
X145301618Y-88174188D01*
X145181920Y-88210498D01*
X145071606Y-88269463D01*
X144974915Y-88348815D01*
X144895563Y-88445506D01*
X144836598Y-88555820D01*
X144800288Y-88675518D01*
X144788028Y-88800000D01*
X140906100Y-88800000D01*
X140906100Y-84501076D01*
X146008229Y-84501076D01*
X146096723Y-84759323D01*
X146376076Y-84894197D01*
X146676375Y-84971981D01*
X146986077Y-84989684D01*
X147293284Y-84946627D01*
X147586186Y-84844465D01*
X147745477Y-84759323D01*
X147833971Y-84501076D01*
X148548229Y-84501076D01*
X148636723Y-84759323D01*
X148916076Y-84894197D01*
X149216375Y-84971981D01*
X149526077Y-84989684D01*
X149833284Y-84946627D01*
X150126186Y-84844465D01*
X150285477Y-84759323D01*
X150373971Y-84501076D01*
X151088229Y-84501076D01*
X151176723Y-84759323D01*
X151456076Y-84894197D01*
X151756375Y-84971981D01*
X152066077Y-84989684D01*
X152373284Y-84946627D01*
X152666186Y-84844465D01*
X152825477Y-84759323D01*
X152913971Y-84501076D01*
X153628229Y-84501076D01*
X153716723Y-84759323D01*
X153996076Y-84894197D01*
X154296375Y-84971981D01*
X154606077Y-84989684D01*
X154913284Y-84946627D01*
X155206186Y-84844465D01*
X155365477Y-84759323D01*
X155453971Y-84501076D01*
X156168229Y-84501076D01*
X156256723Y-84759323D01*
X156536076Y-84894197D01*
X156836375Y-84971981D01*
X157146077Y-84989684D01*
X157453284Y-84946627D01*
X157746186Y-84844465D01*
X157905477Y-84759323D01*
X157993971Y-84501076D01*
X157081100Y-83588205D01*
X156168229Y-84501076D01*
X155453971Y-84501076D01*
X154541100Y-83588205D01*
X153628229Y-84501076D01*
X152913971Y-84501076D01*
X152001100Y-83588205D01*
X151088229Y-84501076D01*
X150373971Y-84501076D01*
X149461100Y-83588205D01*
X148548229Y-84501076D01*
X147833971Y-84501076D01*
X146921100Y-83588205D01*
X146008229Y-84501076D01*
X140906100Y-84501076D01*
X140906100Y-83473577D01*
X145340016Y-83473577D01*
X145383073Y-83780784D01*
X145485235Y-84073686D01*
X145570377Y-84232977D01*
X145828624Y-84321471D01*
X146741495Y-83408600D01*
X147100705Y-83408600D01*
X148013576Y-84321471D01*
X148191100Y-84260639D01*
X148368624Y-84321471D01*
X149281495Y-83408600D01*
X149640705Y-83408600D01*
X150553576Y-84321471D01*
X150731100Y-84260639D01*
X150908624Y-84321471D01*
X151821495Y-83408600D01*
X152180705Y-83408600D01*
X153093576Y-84321471D01*
X153271100Y-84260639D01*
X153448624Y-84321471D01*
X154361495Y-83408600D01*
X154720705Y-83408600D01*
X155633576Y-84321471D01*
X155811100Y-84260639D01*
X155988624Y-84321471D01*
X156901495Y-83408600D01*
X157260705Y-83408600D01*
X158173576Y-84321471D01*
X158431823Y-84232977D01*
X158566697Y-83953624D01*
X158644481Y-83653325D01*
X158662184Y-83343623D01*
X158619127Y-83036416D01*
X158516965Y-82743514D01*
X158431823Y-82584223D01*
X158173576Y-82495729D01*
X157260705Y-83408600D01*
X156901495Y-83408600D01*
X155988624Y-82495729D01*
X155811100Y-82556561D01*
X155633576Y-82495729D01*
X154720705Y-83408600D01*
X154361495Y-83408600D01*
X153448624Y-82495729D01*
X153271100Y-82556561D01*
X153093576Y-82495729D01*
X152180705Y-83408600D01*
X151821495Y-83408600D01*
X150908624Y-82495729D01*
X150731100Y-82556561D01*
X150553576Y-82495729D01*
X149640705Y-83408600D01*
X149281495Y-83408600D01*
X148368624Y-82495729D01*
X148191100Y-82556561D01*
X148013576Y-82495729D01*
X147100705Y-83408600D01*
X146741495Y-83408600D01*
X145828624Y-82495729D01*
X145570377Y-82584223D01*
X145435503Y-82863576D01*
X145357719Y-83163875D01*
X145340016Y-83473577D01*
X140906100Y-83473577D01*
X140906100Y-80900879D01*
X140932725Y-80629336D01*
X141002211Y-80399186D01*
X141115079Y-80186912D01*
X141267028Y-80000605D01*
X141452265Y-79847363D01*
X141663744Y-79733017D01*
X141893408Y-79661924D01*
X142162894Y-79633600D01*
X145934843Y-79633600D01*
X145917223Y-79645373D01*
G37*
X145917223Y-79645373D02*
X145697873Y-79864723D01*
X145525530Y-80122652D01*
X145406818Y-80409248D01*
X145346300Y-80713496D01*
X145346300Y-81023704D01*
X145406818Y-81327952D01*
X145525530Y-81614548D01*
X145697873Y-81872477D01*
X145917223Y-82091827D01*
X146053814Y-82183095D01*
X146008229Y-82316124D01*
X146921100Y-83228995D01*
X147833971Y-82316124D01*
X147788386Y-82183095D01*
X147924977Y-82091827D01*
X148144327Y-81872477D01*
X148191100Y-81802476D01*
X148237873Y-81872477D01*
X148457223Y-82091827D01*
X148593814Y-82183095D01*
X148548229Y-82316124D01*
X149461100Y-83228995D01*
X150373971Y-82316124D01*
X150328386Y-82183095D01*
X150464977Y-82091827D01*
X150684327Y-81872477D01*
X150731100Y-81802476D01*
X150777873Y-81872477D01*
X150997223Y-82091827D01*
X151133814Y-82183095D01*
X151088229Y-82316124D01*
X152001100Y-83228995D01*
X152913971Y-82316124D01*
X152868386Y-82183095D01*
X153004977Y-82091827D01*
X153224327Y-81872477D01*
X153271100Y-81802476D01*
X153317873Y-81872477D01*
X153537223Y-82091827D01*
X153673814Y-82183095D01*
X153628229Y-82316124D01*
X154541100Y-83228995D01*
X155453971Y-82316124D01*
X155408386Y-82183095D01*
X155544977Y-82091827D01*
X155764327Y-81872477D01*
X155811100Y-81802476D01*
X155857873Y-81872477D01*
X156077223Y-82091827D01*
X156213814Y-82183095D01*
X156168229Y-82316124D01*
X157081100Y-83228995D01*
X157993971Y-82316124D01*
X157948386Y-82183095D01*
X158084977Y-82091827D01*
X158304327Y-81872477D01*
X158476670Y-81614548D01*
X158595382Y-81327952D01*
X158655900Y-81023704D01*
X158655900Y-80713496D01*
X158595382Y-80409248D01*
X158476670Y-80122652D01*
X158304327Y-79864723D01*
X158099771Y-79660167D01*
X158100364Y-79660225D01*
X158330514Y-79729711D01*
X158542788Y-79842579D01*
X158729095Y-79994528D01*
X158882337Y-80179765D01*
X158996683Y-80391244D01*
X159067776Y-80620908D01*
X159096101Y-80890403D01*
X159096100Y-129096323D01*
X159069285Y-129369805D01*
X158999233Y-129601826D01*
X158885450Y-129815822D01*
X158732269Y-130003639D01*
X158545524Y-130158129D01*
X158332331Y-130273402D01*
X158100801Y-130345072D01*
X158090667Y-130346137D01*
X158304327Y-130132477D01*
X158476670Y-129874548D01*
X158595382Y-129587952D01*
X158655900Y-129283704D01*
X158655900Y-128973496D01*
X158595382Y-128669248D01*
X158476670Y-128382652D01*
X158304327Y-128124723D01*
X158084977Y-127905373D01*
X157948386Y-127814105D01*
X157993971Y-127681076D01*
X157081100Y-126768205D01*
X156168229Y-127681076D01*
X156213814Y-127814105D01*
X156077223Y-127905373D01*
X155857873Y-128124723D01*
X155811100Y-128194724D01*
X155764327Y-128124723D01*
X155544977Y-127905373D01*
X155408386Y-127814105D01*
X155453971Y-127681076D01*
X154541100Y-126768205D01*
X153628229Y-127681076D01*
X153673814Y-127814105D01*
X153537223Y-127905373D01*
X153317873Y-128124723D01*
X153271100Y-128194724D01*
X153224327Y-128124723D01*
X153004977Y-127905373D01*
X152868386Y-127814105D01*
X152913971Y-127681076D01*
X152001100Y-126768205D01*
X151088229Y-127681076D01*
X151133814Y-127814105D01*
X150997223Y-127905373D01*
X150777873Y-128124723D01*
X150731100Y-128194724D01*
X150684327Y-128124723D01*
X150464977Y-127905373D01*
X150328386Y-127814105D01*
X150373971Y-127681076D01*
X149461100Y-126768205D01*
X148548229Y-127681076D01*
X148593814Y-127814105D01*
X148457223Y-127905373D01*
X148237873Y-128124723D01*
X148191100Y-128194724D01*
X148144327Y-128124723D01*
X147924977Y-127905373D01*
X147788386Y-127814105D01*
X147833971Y-127681076D01*
X146921100Y-126768205D01*
X146008229Y-127681076D01*
X146053814Y-127814105D01*
X145917223Y-127905373D01*
X145697873Y-128124723D01*
X145525530Y-128382652D01*
X145406818Y-128669248D01*
X145346300Y-128973496D01*
X145346300Y-129283704D01*
X145406818Y-129587952D01*
X145525530Y-129874548D01*
X145697873Y-130132477D01*
X145917223Y-130351827D01*
X145949809Y-130373600D01*
X142183377Y-130373600D01*
X141909895Y-130346785D01*
X141677874Y-130276733D01*
X141463878Y-130162950D01*
X141276061Y-130009769D01*
X141121571Y-129823024D01*
X141006298Y-129609831D01*
X140934628Y-129378301D01*
X140906100Y-129106876D01*
X140906100Y-126653577D01*
X145340016Y-126653577D01*
X145383073Y-126960784D01*
X145485235Y-127253686D01*
X145570377Y-127412977D01*
X145828624Y-127501471D01*
X146741495Y-126588600D01*
X147100705Y-126588600D01*
X148013576Y-127501471D01*
X148191100Y-127440639D01*
X148368624Y-127501471D01*
X149281495Y-126588600D01*
X149640705Y-126588600D01*
X150553576Y-127501471D01*
X150731100Y-127440639D01*
X150908624Y-127501471D01*
X151821495Y-126588600D01*
X152180705Y-126588600D01*
X153093576Y-127501471D01*
X153271100Y-127440639D01*
X153448624Y-127501471D01*
X154361495Y-126588600D01*
X154720705Y-126588600D01*
X155633576Y-127501471D01*
X155811100Y-127440639D01*
X155988624Y-127501471D01*
X156901495Y-126588600D01*
X157260705Y-126588600D01*
X158173576Y-127501471D01*
X158431823Y-127412977D01*
X158566697Y-127133624D01*
X158644481Y-126833325D01*
X158662184Y-126523623D01*
X158619127Y-126216416D01*
X158516965Y-125923514D01*
X158431823Y-125764223D01*
X158173576Y-125675729D01*
X157260705Y-126588600D01*
X156901495Y-126588600D01*
X155988624Y-125675729D01*
X155811100Y-125736561D01*
X155633576Y-125675729D01*
X154720705Y-126588600D01*
X154361495Y-126588600D01*
X153448624Y-125675729D01*
X153271100Y-125736561D01*
X153093576Y-125675729D01*
X152180705Y-126588600D01*
X151821495Y-126588600D01*
X150908624Y-125675729D01*
X150731100Y-125736561D01*
X150553576Y-125675729D01*
X149640705Y-126588600D01*
X149281495Y-126588600D01*
X148368624Y-125675729D01*
X148191100Y-125736561D01*
X148013576Y-125675729D01*
X147100705Y-126588600D01*
X146741495Y-126588600D01*
X145828624Y-125675729D01*
X145570377Y-125764223D01*
X145435503Y-126043576D01*
X145357719Y-126343875D01*
X145340016Y-126653577D01*
X140906100Y-126653577D01*
X140906100Y-125496124D01*
X146008229Y-125496124D01*
X146921100Y-126408995D01*
X147833971Y-125496124D01*
X148548229Y-125496124D01*
X149461100Y-126408995D01*
X150373971Y-125496124D01*
X151088229Y-125496124D01*
X152001100Y-126408995D01*
X152913971Y-125496124D01*
X153628229Y-125496124D01*
X154541100Y-126408995D01*
X155453971Y-125496124D01*
X156168229Y-125496124D01*
X157081100Y-126408995D01*
X157993971Y-125496124D01*
X157905477Y-125237877D01*
X157626124Y-125103003D01*
X157325825Y-125025219D01*
X157016123Y-125007516D01*
X156708916Y-125050573D01*
X156416014Y-125152735D01*
X156256723Y-125237877D01*
X156168229Y-125496124D01*
X155453971Y-125496124D01*
X155365477Y-125237877D01*
X155086124Y-125103003D01*
X154785825Y-125025219D01*
X154476123Y-125007516D01*
X154168916Y-125050573D01*
X153876014Y-125152735D01*
X153716723Y-125237877D01*
X153628229Y-125496124D01*
X152913971Y-125496124D01*
X152825477Y-125237877D01*
X152546124Y-125103003D01*
X152245825Y-125025219D01*
X151936123Y-125007516D01*
X151628916Y-125050573D01*
X151336014Y-125152735D01*
X151176723Y-125237877D01*
X151088229Y-125496124D01*
X150373971Y-125496124D01*
X150285477Y-125237877D01*
X150006124Y-125103003D01*
X149705825Y-125025219D01*
X149396123Y-125007516D01*
X149088916Y-125050573D01*
X148796014Y-125152735D01*
X148636723Y-125237877D01*
X148548229Y-125496124D01*
X147833971Y-125496124D01*
X147745477Y-125237877D01*
X147466124Y-125103003D01*
X147165825Y-125025219D01*
X146856123Y-125007516D01*
X146548916Y-125050573D01*
X146256014Y-125152735D01*
X146096723Y-125237877D01*
X146008229Y-125496124D01*
X140906100Y-125496124D01*
X140906100Y-121203600D01*
X144788028Y-121203600D01*
X144800288Y-121328082D01*
X144836598Y-121447780D01*
X144895563Y-121558094D01*
X144974915Y-121654785D01*
X145071606Y-121734137D01*
X145181920Y-121793102D01*
X145301618Y-121829412D01*
X145426100Y-121841672D01*
X145890350Y-121838600D01*
X146049100Y-121679850D01*
X146049100Y-120230600D01*
X146303100Y-120230600D01*
X146303100Y-121679850D01*
X146461850Y-121838600D01*
X146926100Y-121841672D01*
X147050582Y-121829412D01*
X147170280Y-121793102D01*
X147280594Y-121734137D01*
X147377285Y-121654785D01*
X147456637Y-121558094D01*
X147515602Y-121447780D01*
X147551912Y-121328082D01*
X147564172Y-121203600D01*
X147561100Y-120389350D01*
X147402350Y-120230600D01*
X146303100Y-120230600D01*
X146049100Y-120230600D01*
X144949850Y-120230600D01*
X144791100Y-120389350D01*
X144788028Y-121203600D01*
X140906100Y-121203600D01*
X140906100Y-119003600D01*
X144788028Y-119003600D01*
X144791100Y-119817850D01*
X144949850Y-119976600D01*
X146049100Y-119976600D01*
X146049100Y-118527350D01*
X146303100Y-118527350D01*
X146303100Y-119976600D01*
X147402350Y-119976600D01*
X147561100Y-119817850D01*
X147561976Y-119585563D01*
X147891100Y-119585563D01*
X147891100Y-120621636D01*
X147911140Y-120825106D01*
X147990336Y-121086180D01*
X148118943Y-121326787D01*
X148292019Y-121537680D01*
X148502912Y-121710757D01*
X148743519Y-121839364D01*
X149004593Y-121918560D01*
X149276100Y-121945301D01*
X149547606Y-121918560D01*
X149808680Y-121839364D01*
X150049287Y-121710757D01*
X150260180Y-121537681D01*
X150433257Y-121326788D01*
X150561864Y-121086181D01*
X150641060Y-120825107D01*
X150661100Y-120621637D01*
X150661100Y-119585564D01*
X150651493Y-119488021D01*
X156241100Y-119488021D01*
X156241100Y-120719178D01*
X156260417Y-120915305D01*
X156336753Y-121166953D01*
X156460718Y-121398874D01*
X156627545Y-121602155D01*
X156830825Y-121768982D01*
X157062746Y-121892947D01*
X157314394Y-121969283D01*
X157576100Y-121995059D01*
X157837805Y-121969283D01*
X158089453Y-121892947D01*
X158321374Y-121768982D01*
X158524655Y-121602155D01*
X158691482Y-121398875D01*
X158815447Y-121166954D01*
X158891783Y-120915306D01*
X158911100Y-120719179D01*
X158911100Y-119488021D01*
X158891783Y-119291894D01*
X158815447Y-119040246D01*
X158691482Y-118808325D01*
X158524655Y-118605045D01*
X158321375Y-118438218D01*
X158089454Y-118314253D01*
X157837806Y-118237917D01*
X157576100Y-118212141D01*
X157314395Y-118237917D01*
X157062747Y-118314253D01*
X156830826Y-118438218D01*
X156627546Y-118605045D01*
X156460718Y-118808325D01*
X156336753Y-119040246D01*
X156260417Y-119291894D01*
X156241100Y-119488021D01*
X150651493Y-119488021D01*
X150641060Y-119382093D01*
X150561864Y-119121019D01*
X150433257Y-118880412D01*
X150260181Y-118669519D01*
X150049288Y-118496443D01*
X149808681Y-118367836D01*
X149547607Y-118288640D01*
X149276100Y-118261899D01*
X149004594Y-118288640D01*
X148743520Y-118367836D01*
X148502913Y-118496443D01*
X148292020Y-118669519D01*
X148118943Y-118880412D01*
X147990336Y-119121019D01*
X147911140Y-119382093D01*
X147891100Y-119585563D01*
X147561976Y-119585563D01*
X147564172Y-119003600D01*
X147551912Y-118879118D01*
X147515602Y-118759420D01*
X147456637Y-118649106D01*
X147377285Y-118552415D01*
X147280594Y-118473063D01*
X147170280Y-118414098D01*
X147050582Y-118377788D01*
X146926100Y-118365528D01*
X146461850Y-118368600D01*
X146303100Y-118527350D01*
X146049100Y-118527350D01*
X145890350Y-118368600D01*
X145426100Y-118365528D01*
X145301618Y-118377788D01*
X145181920Y-118414098D01*
X145071606Y-118473063D01*
X144974915Y-118552415D01*
X144895563Y-118649106D01*
X144836598Y-118759420D01*
X144800288Y-118879118D01*
X144788028Y-119003600D01*
X140906100Y-119003600D01*
X140906100Y-112948800D01*
X141208228Y-112948800D01*
X141208228Y-114828400D01*
X141220488Y-114952882D01*
X141256798Y-115072580D01*
X141315763Y-115182894D01*
X141395115Y-115279585D01*
X141491806Y-115358937D01*
X141602120Y-115417902D01*
X141721818Y-115454212D01*
X141846300Y-115466472D01*
X143725900Y-115466472D01*
X143850382Y-115454212D01*
X143970080Y-115417902D01*
X144080394Y-115358937D01*
X144177085Y-115279585D01*
X144256437Y-115182894D01*
X144315402Y-115072580D01*
X144351712Y-114952882D01*
X144363972Y-114828400D01*
X144363972Y-112948800D01*
X144351712Y-112824318D01*
X144315402Y-112704620D01*
X144256437Y-112594306D01*
X144177085Y-112497615D01*
X144080394Y-112418263D01*
X143991211Y-112370593D01*
X144009327Y-112352477D01*
X144181670Y-112094548D01*
X144300382Y-111807952D01*
X144360900Y-111503704D01*
X144360900Y-111193496D01*
X144349411Y-111135732D01*
X144788028Y-111135732D01*
X144800288Y-111260214D01*
X144836598Y-111379912D01*
X144895563Y-111490226D01*
X144974915Y-111586917D01*
X145071606Y-111666269D01*
X145181920Y-111725234D01*
X145301618Y-111761544D01*
X145426100Y-111773804D01*
X145890350Y-111770732D01*
X146049100Y-111611982D01*
X146049100Y-110162732D01*
X146303100Y-110162732D01*
X146303100Y-111611982D01*
X146461850Y-111770732D01*
X146926100Y-111773804D01*
X147050582Y-111761544D01*
X147170280Y-111725234D01*
X147280594Y-111666269D01*
X147377285Y-111586917D01*
X147456637Y-111490226D01*
X147515602Y-111379912D01*
X147551912Y-111260214D01*
X147564172Y-111135732D01*
X147561100Y-110321482D01*
X147402350Y-110162732D01*
X146303100Y-110162732D01*
X146049100Y-110162732D01*
X144949850Y-110162732D01*
X144791100Y-110321482D01*
X144788028Y-111135732D01*
X144349411Y-111135732D01*
X144300382Y-110889248D01*
X144181670Y-110602652D01*
X144009327Y-110344723D01*
X143789977Y-110125373D01*
X143719976Y-110078600D01*
X143789977Y-110031827D01*
X144009327Y-109812477D01*
X144181670Y-109554548D01*
X144300382Y-109267952D01*
X144360900Y-108963704D01*
X144360900Y-108935732D01*
X144788028Y-108935732D01*
X144791100Y-109749982D01*
X144949850Y-109908732D01*
X146049100Y-109908732D01*
X146049100Y-108459482D01*
X146303100Y-108459482D01*
X146303100Y-109908732D01*
X147402350Y-109908732D01*
X147561100Y-109749982D01*
X147561976Y-109517695D01*
X147891100Y-109517695D01*
X147891100Y-110553768D01*
X147911140Y-110757238D01*
X147990336Y-111018312D01*
X148118943Y-111258919D01*
X148292019Y-111469812D01*
X148502912Y-111642889D01*
X148743519Y-111771496D01*
X149004593Y-111850692D01*
X149276100Y-111877433D01*
X149547606Y-111850692D01*
X149808680Y-111771496D01*
X150049287Y-111642889D01*
X150260180Y-111469813D01*
X150433257Y-111258920D01*
X150561864Y-111018313D01*
X150641060Y-110757239D01*
X150661100Y-110553769D01*
X150661100Y-109517696D01*
X150651493Y-109420153D01*
X156241100Y-109420153D01*
X156241100Y-110651310D01*
X156260417Y-110847437D01*
X156336753Y-111099085D01*
X156460718Y-111331006D01*
X156627545Y-111534287D01*
X156830825Y-111701114D01*
X157062746Y-111825079D01*
X157314394Y-111901415D01*
X157576100Y-111927191D01*
X157837805Y-111901415D01*
X158089453Y-111825079D01*
X158321374Y-111701114D01*
X158524655Y-111534287D01*
X158691482Y-111331007D01*
X158815447Y-111099086D01*
X158891783Y-110847438D01*
X158911100Y-110651311D01*
X158911100Y-109420153D01*
X158891783Y-109224026D01*
X158815447Y-108972378D01*
X158691482Y-108740457D01*
X158524655Y-108537177D01*
X158321375Y-108370350D01*
X158089454Y-108246385D01*
X157837806Y-108170049D01*
X157576100Y-108144273D01*
X157314395Y-108170049D01*
X157062747Y-108246385D01*
X156830826Y-108370350D01*
X156627546Y-108537177D01*
X156460718Y-108740457D01*
X156336753Y-108972378D01*
X156260417Y-109224026D01*
X156241100Y-109420153D01*
X150651493Y-109420153D01*
X150641060Y-109314225D01*
X150561864Y-109053151D01*
X150433257Y-108812544D01*
X150260181Y-108601651D01*
X150049288Y-108428575D01*
X149808681Y-108299968D01*
X149547607Y-108220772D01*
X149276100Y-108194031D01*
X149004594Y-108220772D01*
X148743520Y-108299968D01*
X148502913Y-108428575D01*
X148292020Y-108601651D01*
X148118943Y-108812544D01*
X147990336Y-109053151D01*
X147911140Y-109314225D01*
X147891100Y-109517695D01*
X147561976Y-109517695D01*
X147564172Y-108935732D01*
X147551912Y-108811250D01*
X147515602Y-108691552D01*
X147456637Y-108581238D01*
X147377285Y-108484547D01*
X147280594Y-108405195D01*
X147170280Y-108346230D01*
X147050582Y-108309920D01*
X146926100Y-108297660D01*
X146461850Y-108300732D01*
X146303100Y-108459482D01*
X146049100Y-108459482D01*
X145890350Y-108300732D01*
X145426100Y-108297660D01*
X145301618Y-108309920D01*
X145181920Y-108346230D01*
X145071606Y-108405195D01*
X144974915Y-108484547D01*
X144895563Y-108581238D01*
X144836598Y-108691552D01*
X144800288Y-108811250D01*
X144788028Y-108935732D01*
X144360900Y-108935732D01*
X144360900Y-108653496D01*
X144300382Y-108349248D01*
X144181670Y-108062652D01*
X144009327Y-107804723D01*
X143789977Y-107585373D01*
X143719976Y-107538600D01*
X143789977Y-107491827D01*
X144009327Y-107272477D01*
X144181670Y-107014548D01*
X144300382Y-106727952D01*
X144360900Y-106423704D01*
X144360900Y-106113496D01*
X144300382Y-105809248D01*
X144181670Y-105522652D01*
X144009327Y-105264723D01*
X143789977Y-105045373D01*
X143719976Y-104998600D01*
X143789977Y-104951827D01*
X144009327Y-104732477D01*
X144181670Y-104474548D01*
X144300382Y-104187952D01*
X144360900Y-103883704D01*
X144360900Y-103573496D01*
X144300382Y-103269248D01*
X144181670Y-102982652D01*
X144009327Y-102724723D01*
X143789977Y-102505373D01*
X143719976Y-102458600D01*
X143789977Y-102411827D01*
X144009327Y-102192477D01*
X144181670Y-101934548D01*
X144300382Y-101647952D01*
X144360900Y-101343704D01*
X144360900Y-101067866D01*
X144788028Y-101067866D01*
X144800288Y-101192348D01*
X144836598Y-101312046D01*
X144895563Y-101422360D01*
X144974915Y-101519051D01*
X145071606Y-101598403D01*
X145181920Y-101657368D01*
X145301618Y-101693678D01*
X145426100Y-101705938D01*
X145890350Y-101702866D01*
X146049100Y-101544116D01*
X146049100Y-100094866D01*
X146303100Y-100094866D01*
X146303100Y-101544116D01*
X146461850Y-101702866D01*
X146926100Y-101705938D01*
X147050582Y-101693678D01*
X147170280Y-101657368D01*
X147280594Y-101598403D01*
X147377285Y-101519051D01*
X147456637Y-101422360D01*
X147515602Y-101312046D01*
X147551912Y-101192348D01*
X147564172Y-101067866D01*
X147561100Y-100253616D01*
X147402350Y-100094866D01*
X146303100Y-100094866D01*
X146049100Y-100094866D01*
X144949850Y-100094866D01*
X144791100Y-100253616D01*
X144788028Y-101067866D01*
X144360900Y-101067866D01*
X144360900Y-101033496D01*
X144300382Y-100729248D01*
X144181670Y-100442652D01*
X144009327Y-100184723D01*
X143789977Y-99965373D01*
X143719976Y-99918600D01*
X143789977Y-99871827D01*
X144009327Y-99652477D01*
X144181670Y-99394548D01*
X144300382Y-99107952D01*
X144348137Y-98867866D01*
X144788028Y-98867866D01*
X144791100Y-99682116D01*
X144949850Y-99840866D01*
X146049100Y-99840866D01*
X146049100Y-98391616D01*
X146303100Y-98391616D01*
X146303100Y-99840866D01*
X147402350Y-99840866D01*
X147561100Y-99682116D01*
X147561976Y-99449829D01*
X147891100Y-99449829D01*
X147891100Y-100485902D01*
X147911140Y-100689372D01*
X147990336Y-100950446D01*
X148118943Y-101191053D01*
X148292019Y-101401946D01*
X148502912Y-101575023D01*
X148743519Y-101703630D01*
X149004593Y-101782826D01*
X149276100Y-101809567D01*
X149547606Y-101782826D01*
X149808680Y-101703630D01*
X150049287Y-101575023D01*
X150260180Y-101401947D01*
X150433257Y-101191054D01*
X150561864Y-100950447D01*
X150641060Y-100689373D01*
X150661100Y-100485903D01*
X150661100Y-99449830D01*
X150651493Y-99352287D01*
X156241100Y-99352287D01*
X156241100Y-100583444D01*
X156260417Y-100779571D01*
X156336753Y-101031219D01*
X156460718Y-101263140D01*
X156627545Y-101466421D01*
X156830825Y-101633248D01*
X157062746Y-101757213D01*
X157314394Y-101833549D01*
X157576100Y-101859325D01*
X157837805Y-101833549D01*
X158089453Y-101757213D01*
X158321374Y-101633248D01*
X158524655Y-101466421D01*
X158691482Y-101263141D01*
X158815447Y-101031220D01*
X158891783Y-100779572D01*
X158911100Y-100583445D01*
X158911100Y-99352287D01*
X158891783Y-99156160D01*
X158815447Y-98904512D01*
X158691482Y-98672591D01*
X158524655Y-98469311D01*
X158321375Y-98302484D01*
X158089454Y-98178519D01*
X157837806Y-98102183D01*
X157576100Y-98076407D01*
X157314395Y-98102183D01*
X157062747Y-98178519D01*
X156830826Y-98302484D01*
X156627546Y-98469311D01*
X156460718Y-98672591D01*
X156336753Y-98904512D01*
X156260417Y-99156160D01*
X156241100Y-99352287D01*
X150651493Y-99352287D01*
X150641060Y-99246359D01*
X150561864Y-98985285D01*
X150433257Y-98744678D01*
X150260181Y-98533785D01*
X150049288Y-98360709D01*
X149808681Y-98232102D01*
X149547607Y-98152906D01*
X149276100Y-98126165D01*
X149004594Y-98152906D01*
X148743520Y-98232102D01*
X148502913Y-98360709D01*
X148292020Y-98533785D01*
X148118943Y-98744678D01*
X147990336Y-98985285D01*
X147911140Y-99246359D01*
X147891100Y-99449829D01*
X147561976Y-99449829D01*
X147564172Y-98867866D01*
X147551912Y-98743384D01*
X147515602Y-98623686D01*
X147456637Y-98513372D01*
X147377285Y-98416681D01*
X147280594Y-98337329D01*
X147170280Y-98278364D01*
X147050582Y-98242054D01*
X146926100Y-98229794D01*
X146461850Y-98232866D01*
X146303100Y-98391616D01*
X146049100Y-98391616D01*
X145890350Y-98232866D01*
X145426100Y-98229794D01*
X145301618Y-98242054D01*
X145181920Y-98278364D01*
X145071606Y-98337329D01*
X144974915Y-98416681D01*
X144895563Y-98513372D01*
X144836598Y-98623686D01*
X144800288Y-98743384D01*
X144788028Y-98867866D01*
X144348137Y-98867866D01*
X144360900Y-98803704D01*
X144360900Y-98493496D01*
X144300382Y-98189248D01*
X144181670Y-97902652D01*
X144009327Y-97644723D01*
X143789977Y-97425373D01*
X143719976Y-97378600D01*
X143789977Y-97331827D01*
X144009327Y-97112477D01*
X144181670Y-96854548D01*
X144300382Y-96567952D01*
X144360900Y-96263704D01*
X144360900Y-95953496D01*
X144300382Y-95649248D01*
X144181670Y-95362652D01*
X144009327Y-95104723D01*
X143789977Y-94885373D01*
X143532048Y-94713030D01*
X143245452Y-94594318D01*
X142941204Y-94533800D01*
X142630996Y-94533800D01*
X142326748Y-94594318D01*
X142040152Y-94713030D01*
X141782223Y-94885373D01*
X141562873Y-95104723D01*
X141390530Y-95362652D01*
X141271818Y-95649248D01*
X141211300Y-95953496D01*
X141211300Y-96263704D01*
X141271818Y-96567952D01*
X141390530Y-96854548D01*
X141562873Y-97112477D01*
X141782223Y-97331827D01*
X141852224Y-97378600D01*
X141782223Y-97425373D01*
X141562873Y-97644723D01*
X141390530Y-97902652D01*
X141271818Y-98189248D01*
X141211300Y-98493496D01*
X141211300Y-98803704D01*
X141271818Y-99107952D01*
X141390530Y-99394548D01*
X141562873Y-99652477D01*
X141782223Y-99871827D01*
X141852224Y-99918600D01*
X141782223Y-99965373D01*
X141562873Y-100184723D01*
X141390530Y-100442652D01*
X141271818Y-100729248D01*
X141211300Y-101033496D01*
X141211300Y-101343704D01*
X141271818Y-101647952D01*
X141390530Y-101934548D01*
X141562873Y-102192477D01*
X141782223Y-102411827D01*
X141852224Y-102458600D01*
X141782223Y-102505373D01*
X141562873Y-102724723D01*
X141390530Y-102982652D01*
X141271818Y-103269248D01*
X141211300Y-103573496D01*
X141211300Y-103883704D01*
X141271818Y-104187952D01*
X141390530Y-104474548D01*
X141562873Y-104732477D01*
X141782223Y-104951827D01*
X141852224Y-104998600D01*
X141782223Y-105045373D01*
X141562873Y-105264723D01*
X141390530Y-105522652D01*
X141271818Y-105809248D01*
X141211300Y-106113496D01*
X141211300Y-106423704D01*
X141271818Y-106727952D01*
X141390530Y-107014548D01*
X141562873Y-107272477D01*
X141782223Y-107491827D01*
X141852224Y-107538600D01*
X141782223Y-107585373D01*
X141562873Y-107804723D01*
X141390530Y-108062652D01*
X141271818Y-108349248D01*
X141211300Y-108653496D01*
X141211300Y-108963704D01*
X141271818Y-109267952D01*
X141390530Y-109554548D01*
X141562873Y-109812477D01*
X141782223Y-110031827D01*
X141852224Y-110078600D01*
X141782223Y-110125373D01*
X141562873Y-110344723D01*
X141390530Y-110602652D01*
X141271818Y-110889248D01*
X141211300Y-111193496D01*
X141211300Y-111503704D01*
X141271818Y-111807952D01*
X141390530Y-112094548D01*
X141562873Y-112352477D01*
X141580989Y-112370593D01*
X141491806Y-112418263D01*
X141395115Y-112497615D01*
X141315763Y-112594306D01*
X141256798Y-112704620D01*
X141220488Y-112824318D01*
X141208228Y-112948800D01*
X140906100Y-112948800D01*
X140906100Y-91000000D01*
X144788028Y-91000000D01*
X144800288Y-91124482D01*
X144836598Y-91244180D01*
X144895563Y-91354494D01*
X144974915Y-91451185D01*
X145071606Y-91530537D01*
X145181920Y-91589502D01*
X145301618Y-91625812D01*
X145426100Y-91638072D01*
X145890350Y-91635000D01*
X146049100Y-91476250D01*
X146049100Y-90027000D01*
X146303100Y-90027000D01*
X146303100Y-91476250D01*
X146461850Y-91635000D01*
X146926100Y-91638072D01*
X147050582Y-91625812D01*
X147170280Y-91589502D01*
X147280594Y-91530537D01*
X147377285Y-91451185D01*
X147456637Y-91354494D01*
X147515602Y-91244180D01*
X147551912Y-91124482D01*
X147564172Y-91000000D01*
X147561100Y-90185750D01*
X147402350Y-90027000D01*
X146303100Y-90027000D01*
X146049100Y-90027000D01*
X144949850Y-90027000D01*
X144791100Y-90185750D01*
X144788028Y-91000000D01*
X140906100Y-91000000D01*
X140906100Y-88800000D01*
X144788028Y-88800000D01*
X144791100Y-89614250D01*
X144949850Y-89773000D01*
X146049100Y-89773000D01*
X146049100Y-88323750D01*
X146303100Y-88323750D01*
X146303100Y-89773000D01*
X147402350Y-89773000D01*
X147561100Y-89614250D01*
X147561976Y-89381963D01*
X147891100Y-89381963D01*
X147891100Y-90418036D01*
X147911140Y-90621506D01*
X147990336Y-90882580D01*
X148118943Y-91123187D01*
X148292019Y-91334080D01*
X148502912Y-91507157D01*
X148743519Y-91635764D01*
X149004593Y-91714960D01*
X149276100Y-91741701D01*
X149547606Y-91714960D01*
X149808680Y-91635764D01*
X150049287Y-91507157D01*
X150260180Y-91334081D01*
X150433257Y-91123188D01*
X150561864Y-90882581D01*
X150641060Y-90621507D01*
X150661100Y-90418037D01*
X150661100Y-89381964D01*
X150651493Y-89284421D01*
X156241100Y-89284421D01*
X156241100Y-90515578D01*
X156260417Y-90711705D01*
X156336753Y-90963353D01*
X156460718Y-91195274D01*
X156627545Y-91398555D01*
X156830825Y-91565382D01*
X157062746Y-91689347D01*
X157314394Y-91765683D01*
X157576100Y-91791459D01*
X157837805Y-91765683D01*
X158089453Y-91689347D01*
X158321374Y-91565382D01*
X158524655Y-91398555D01*
X158691482Y-91195275D01*
X158815447Y-90963354D01*
X158891783Y-90711706D01*
X158911100Y-90515579D01*
X158911100Y-89284421D01*
X158891783Y-89088294D01*
X158815447Y-88836646D01*
X158691482Y-88604725D01*
X158524655Y-88401445D01*
X158321375Y-88234618D01*
X158089454Y-88110653D01*
X157837806Y-88034317D01*
X157576100Y-88008541D01*
X157314395Y-88034317D01*
X157062747Y-88110653D01*
X156830826Y-88234618D01*
X156627546Y-88401445D01*
X156460718Y-88604725D01*
X156336753Y-88836646D01*
X156260417Y-89088294D01*
X156241100Y-89284421D01*
X150651493Y-89284421D01*
X150641060Y-89178493D01*
X150561864Y-88917419D01*
X150433257Y-88676812D01*
X150260181Y-88465919D01*
X150049288Y-88292843D01*
X149808681Y-88164236D01*
X149547607Y-88085040D01*
X149276100Y-88058299D01*
X149004594Y-88085040D01*
X148743520Y-88164236D01*
X148502913Y-88292843D01*
X148292020Y-88465919D01*
X148118943Y-88676812D01*
X147990336Y-88917419D01*
X147911140Y-89178493D01*
X147891100Y-89381963D01*
X147561976Y-89381963D01*
X147564172Y-88800000D01*
X147551912Y-88675518D01*
X147515602Y-88555820D01*
X147456637Y-88445506D01*
X147377285Y-88348815D01*
X147280594Y-88269463D01*
X147170280Y-88210498D01*
X147050582Y-88174188D01*
X146926100Y-88161928D01*
X146461850Y-88165000D01*
X146303100Y-88323750D01*
X146049100Y-88323750D01*
X145890350Y-88165000D01*
X145426100Y-88161928D01*
X145301618Y-88174188D01*
X145181920Y-88210498D01*
X145071606Y-88269463D01*
X144974915Y-88348815D01*
X144895563Y-88445506D01*
X144836598Y-88555820D01*
X144800288Y-88675518D01*
X144788028Y-88800000D01*
X140906100Y-88800000D01*
X140906100Y-84501076D01*
X146008229Y-84501076D01*
X146096723Y-84759323D01*
X146376076Y-84894197D01*
X146676375Y-84971981D01*
X146986077Y-84989684D01*
X147293284Y-84946627D01*
X147586186Y-84844465D01*
X147745477Y-84759323D01*
X147833971Y-84501076D01*
X148548229Y-84501076D01*
X148636723Y-84759323D01*
X148916076Y-84894197D01*
X149216375Y-84971981D01*
X149526077Y-84989684D01*
X149833284Y-84946627D01*
X150126186Y-84844465D01*
X150285477Y-84759323D01*
X150373971Y-84501076D01*
X151088229Y-84501076D01*
X151176723Y-84759323D01*
X151456076Y-84894197D01*
X151756375Y-84971981D01*
X152066077Y-84989684D01*
X152373284Y-84946627D01*
X152666186Y-84844465D01*
X152825477Y-84759323D01*
X152913971Y-84501076D01*
X153628229Y-84501076D01*
X153716723Y-84759323D01*
X153996076Y-84894197D01*
X154296375Y-84971981D01*
X154606077Y-84989684D01*
X154913284Y-84946627D01*
X155206186Y-84844465D01*
X155365477Y-84759323D01*
X155453971Y-84501076D01*
X156168229Y-84501076D01*
X156256723Y-84759323D01*
X156536076Y-84894197D01*
X156836375Y-84971981D01*
X157146077Y-84989684D01*
X157453284Y-84946627D01*
X157746186Y-84844465D01*
X157905477Y-84759323D01*
X157993971Y-84501076D01*
X157081100Y-83588205D01*
X156168229Y-84501076D01*
X155453971Y-84501076D01*
X154541100Y-83588205D01*
X153628229Y-84501076D01*
X152913971Y-84501076D01*
X152001100Y-83588205D01*
X151088229Y-84501076D01*
X150373971Y-84501076D01*
X149461100Y-83588205D01*
X148548229Y-84501076D01*
X147833971Y-84501076D01*
X146921100Y-83588205D01*
X146008229Y-84501076D01*
X140906100Y-84501076D01*
X140906100Y-83473577D01*
X145340016Y-83473577D01*
X145383073Y-83780784D01*
X145485235Y-84073686D01*
X145570377Y-84232977D01*
X145828624Y-84321471D01*
X146741495Y-83408600D01*
X147100705Y-83408600D01*
X148013576Y-84321471D01*
X148191100Y-84260639D01*
X148368624Y-84321471D01*
X149281495Y-83408600D01*
X149640705Y-83408600D01*
X150553576Y-84321471D01*
X150731100Y-84260639D01*
X150908624Y-84321471D01*
X151821495Y-83408600D01*
X152180705Y-83408600D01*
X153093576Y-84321471D01*
X153271100Y-84260639D01*
X153448624Y-84321471D01*
X154361495Y-83408600D01*
X154720705Y-83408600D01*
X155633576Y-84321471D01*
X155811100Y-84260639D01*
X155988624Y-84321471D01*
X156901495Y-83408600D01*
X157260705Y-83408600D01*
X158173576Y-84321471D01*
X158431823Y-84232977D01*
X158566697Y-83953624D01*
X158644481Y-83653325D01*
X158662184Y-83343623D01*
X158619127Y-83036416D01*
X158516965Y-82743514D01*
X158431823Y-82584223D01*
X158173576Y-82495729D01*
X157260705Y-83408600D01*
X156901495Y-83408600D01*
X155988624Y-82495729D01*
X155811100Y-82556561D01*
X155633576Y-82495729D01*
X154720705Y-83408600D01*
X154361495Y-83408600D01*
X153448624Y-82495729D01*
X153271100Y-82556561D01*
X153093576Y-82495729D01*
X152180705Y-83408600D01*
X151821495Y-83408600D01*
X150908624Y-82495729D01*
X150731100Y-82556561D01*
X150553576Y-82495729D01*
X149640705Y-83408600D01*
X149281495Y-83408600D01*
X148368624Y-82495729D01*
X148191100Y-82556561D01*
X148013576Y-82495729D01*
X147100705Y-83408600D01*
X146741495Y-83408600D01*
X145828624Y-82495729D01*
X145570377Y-82584223D01*
X145435503Y-82863576D01*
X145357719Y-83163875D01*
X145340016Y-83473577D01*
X140906100Y-83473577D01*
X140906100Y-80900879D01*
X140932725Y-80629336D01*
X141002211Y-80399186D01*
X141115079Y-80186912D01*
X141267028Y-80000605D01*
X141452265Y-79847363D01*
X141663744Y-79733017D01*
X141893408Y-79661924D01*
X142162894Y-79633600D01*
X145934843Y-79633600D01*
X145917223Y-79645373D01*
M02*
