M48
; DRILL file {KiCad 5.1.5-52549c5~84~ubuntu18.04.1} date Mon 23 Mar 2020 11:22:11 AM EDT
; FORMAT={-:-/ absolute / inch / decimal}
; #@! TF.CreationDate,2020-03-23T11:22:11-04:00
; #@! TF.GenerationSoftware,Kicad,Pcbnew,5.1.5-52549c5~84~ubuntu18.04.1
; #@! TF.FileFunction,Plated,1,2,PTH
FMAT,2
INCH
T1C0.0197
T2C0.0236
T3C0.0400
%
G90
G05
T3
X5.7843Y-4.9838
X5.7843Y-5.0838
X5.8843Y-4.9838
X5.8843Y-5.0838
X5.9843Y-4.9838
X5.9843Y-5.0838
X6.0843Y-4.9838
X6.0843Y-5.0838
X6.1843Y-4.9838
X6.1843Y-5.0838
X5.6215Y-3.7838
X5.6215Y-3.8838
X5.6215Y-3.9838
X5.6215Y-4.0838
X5.6215Y-4.1838
X5.6215Y-4.2838
X5.6215Y-4.3838
X5.6215Y-4.4838
X5.7843Y-3.1838
X5.7843Y-3.2838
X5.8843Y-3.1838
X5.8843Y-3.2838
X5.9843Y-3.1838
X5.9843Y-3.2838
X6.0843Y-3.1838
X6.0843Y-3.2838
X6.1843Y-3.1838
X6.1843Y-3.2838
T1
G00X6.2038Y-3.5197
M15
G01X6.2038Y-3.5591
M16
G05
G00X6.2038Y-4.3124
M15
G01X6.2038Y-4.3518
M16
G05
G00X6.2038Y-3.9161
M15
G01X6.2038Y-3.9554
M16
G05
G00X6.2038Y-4.7088
M15
G01X6.2038Y-4.7482
M16
G05
T2
G00X5.755Y-3.5256
M15
G01X5.755Y-3.5531
M16
G05
G00X5.877Y-3.5217
M15
G01X5.877Y-3.5571
M16
G05
G00X5.755Y-4.3183
M15
G01X5.755Y-4.3459
M16
G05
G00X5.877Y-4.3144
M15
G01X5.877Y-4.3498
M16
G05
G00X5.755Y-3.922
M15
G01X5.755Y-3.9495
M16
G05
G00X5.877Y-3.918
M15
G01X5.877Y-3.9535
M16
G05
G00X5.755Y-4.7147
M15
G01X5.755Y-4.7423
M16
G05
G00X5.877Y-4.7108
M15
G01X5.877Y-4.7462
M16
G05
T0
M30
