G04 #@! TF.GenerationSoftware,KiCad,Pcbnew,5.1.5-52549c5~84~ubuntu18.04.1*
G04 #@! TF.CreationDate,2020-03-23T11:22:08-04:00*
G04 #@! TF.ProjectId,bbf-eurojacks-thonkiconn,6262662d-6575-4726-9f6a-61636b732d74,rev?*
G04 #@! TF.SameCoordinates,Original*
G04 #@! TF.FileFunction,Legend,Top*
G04 #@! TF.FilePolarity,Positive*
%FSLAX46Y46*%
G04 Gerber Fmt 4.6, Leading zero omitted, Abs format (unit mm)*
G04 Created by KiCad (PCBNEW 5.1.5-52549c5~84~ubuntu18.04.1) date 2020-03-23 11:22:08*
%MOMM*%
%LPD*%
G04 APERTURE LIST*
%ADD10C,0.150000*%
%ADD11C,0.121920*%
%ADD12C,0.100000*%
%ADD13C,0.203200*%
%ADD14C,0.152400*%
%ADD15C,0.120000*%
G04 APERTURE END LIST*
D10*
X141461904Y-128552380D02*
X141795238Y-129552380D01*
X142128571Y-128552380D01*
X142461904Y-129028571D02*
X142795238Y-129028571D01*
X142938095Y-129552380D02*
X142461904Y-129552380D01*
X142461904Y-128552380D01*
X142938095Y-128552380D01*
X143366666Y-129028571D02*
X143700000Y-129028571D01*
X143842857Y-129552380D02*
X143366666Y-129552380D01*
X143366666Y-128552380D01*
X143842857Y-128552380D01*
X141938095Y-126100000D02*
X141842857Y-126052380D01*
X141700000Y-126052380D01*
X141557142Y-126100000D01*
X141461904Y-126195238D01*
X141414285Y-126290476D01*
X141366666Y-126480952D01*
X141366666Y-126623809D01*
X141414285Y-126814285D01*
X141461904Y-126909523D01*
X141557142Y-127004761D01*
X141700000Y-127052380D01*
X141795238Y-127052380D01*
X141938095Y-127004761D01*
X141985714Y-126957142D01*
X141985714Y-126623809D01*
X141795238Y-126623809D01*
X142414285Y-127052380D02*
X142414285Y-126052380D01*
X142985714Y-127052380D01*
X142985714Y-126052380D01*
X143461904Y-127052380D02*
X143461904Y-126052380D01*
X143700000Y-126052380D01*
X143842857Y-126100000D01*
X143938095Y-126195238D01*
X143985714Y-126290476D01*
X144033333Y-126480952D01*
X144033333Y-126623809D01*
X143985714Y-126814285D01*
X143938095Y-126909523D01*
X143842857Y-127004761D01*
X143700000Y-127052380D01*
X143461904Y-127052380D01*
X141938095Y-83000000D02*
X141842857Y-82952380D01*
X141700000Y-82952380D01*
X141557142Y-83000000D01*
X141461904Y-83095238D01*
X141414285Y-83190476D01*
X141366666Y-83380952D01*
X141366666Y-83523809D01*
X141414285Y-83714285D01*
X141461904Y-83809523D01*
X141557142Y-83904761D01*
X141700000Y-83952380D01*
X141795238Y-83952380D01*
X141938095Y-83904761D01*
X141985714Y-83857142D01*
X141985714Y-83523809D01*
X141795238Y-83523809D01*
X142414285Y-83952380D02*
X142414285Y-82952380D01*
X142985714Y-83952380D01*
X142985714Y-82952380D01*
X143461904Y-83952380D02*
X143461904Y-82952380D01*
X143700000Y-82952380D01*
X143842857Y-83000000D01*
X143938095Y-83095238D01*
X143985714Y-83190476D01*
X144033333Y-83380952D01*
X144033333Y-83523809D01*
X143985714Y-83714285D01*
X143938095Y-83809523D01*
X143842857Y-83904761D01*
X143700000Y-83952380D01*
X143461904Y-83952380D01*
X141366666Y-80352380D02*
X141700000Y-81352380D01*
X142033333Y-80352380D01*
X142938095Y-81257142D02*
X142890476Y-81304761D01*
X142747619Y-81352380D01*
X142652380Y-81352380D01*
X142509523Y-81304761D01*
X142414285Y-81209523D01*
X142366666Y-81114285D01*
X142319047Y-80923809D01*
X142319047Y-80780952D01*
X142366666Y-80590476D01*
X142414285Y-80495238D01*
X142509523Y-80400000D01*
X142652380Y-80352380D01*
X142747619Y-80352380D01*
X142890476Y-80400000D01*
X142938095Y-80447619D01*
X143938095Y-81257142D02*
X143890476Y-81304761D01*
X143747619Y-81352380D01*
X143652380Y-81352380D01*
X143509523Y-81304761D01*
X143414285Y-81209523D01*
X143366666Y-81114285D01*
X143319047Y-80923809D01*
X143319047Y-80780952D01*
X143366666Y-80590476D01*
X143414285Y-80495238D01*
X143509523Y-80400000D01*
X143652380Y-80352380D01*
X143747619Y-80352380D01*
X143890476Y-80400000D01*
X143938095Y-80447619D01*
D11*
X143199705Y-93940504D02*
X143199705Y-93683117D01*
X143604170Y-93572809D02*
X143604170Y-93940504D01*
X142832010Y-93940504D01*
X142832010Y-93572809D01*
X142537854Y-93683117D02*
X142648162Y-93793426D01*
X143604170Y-93241883D02*
X143089397Y-93241883D01*
X143162936Y-93241883D02*
X143126166Y-93205113D01*
X143089397Y-93131574D01*
X143089397Y-93021266D01*
X143126166Y-92947727D01*
X143199705Y-92910957D01*
X143604170Y-92910957D01*
X143199705Y-92910957D02*
X143126166Y-92874188D01*
X143089397Y-92800649D01*
X143089397Y-92690340D01*
X143126166Y-92616801D01*
X143199705Y-92580032D01*
X143604170Y-92580032D01*
X143604170Y-92212336D02*
X143089397Y-92212336D01*
X142832010Y-92212336D02*
X142868780Y-92249106D01*
X142905549Y-92212336D01*
X142868780Y-92175567D01*
X142832010Y-92212336D01*
X142905549Y-92212336D01*
X143604170Y-91734332D02*
X143567400Y-91807872D01*
X143493861Y-91844641D01*
X142832010Y-91844641D01*
X143604170Y-91440176D02*
X143089397Y-91440176D01*
X142832010Y-91440176D02*
X142868780Y-91476946D01*
X142905549Y-91440176D01*
X142868780Y-91403407D01*
X142832010Y-91440176D01*
X142905549Y-91440176D01*
X143567400Y-90778325D02*
X143604170Y-90851864D01*
X143604170Y-90998942D01*
X143567400Y-91072481D01*
X143493861Y-91109251D01*
X143199705Y-91109251D01*
X143126166Y-91072481D01*
X143089397Y-90998942D01*
X143089397Y-90851864D01*
X143126166Y-90778325D01*
X143199705Y-90741555D01*
X143273244Y-90741555D01*
X143346783Y-91109251D01*
X142868780Y-89417852D02*
X142832010Y-89491392D01*
X142832010Y-89601700D01*
X142868780Y-89712009D01*
X142942319Y-89785548D01*
X143015858Y-89822317D01*
X143162936Y-89859087D01*
X143273244Y-89859087D01*
X143420322Y-89822317D01*
X143493861Y-89785548D01*
X143567400Y-89712009D01*
X143604170Y-89601700D01*
X143604170Y-89528161D01*
X143567400Y-89417852D01*
X143530631Y-89381083D01*
X143273244Y-89381083D01*
X143273244Y-89528161D01*
X143604170Y-89050157D02*
X143089397Y-89050157D01*
X142832010Y-89050157D02*
X142868780Y-89086927D01*
X142905549Y-89050157D01*
X142868780Y-89013388D01*
X142832010Y-89050157D01*
X142905549Y-89050157D01*
X143604170Y-88572153D02*
X143567400Y-88645692D01*
X143493861Y-88682462D01*
X142832010Y-88682462D01*
X143604170Y-88167689D02*
X143567400Y-88241228D01*
X143493861Y-88277997D01*
X142832010Y-88277997D01*
X143567400Y-87579376D02*
X143604170Y-87652915D01*
X143604170Y-87799993D01*
X143567400Y-87873532D01*
X143493861Y-87910302D01*
X143199705Y-87910302D01*
X143126166Y-87873532D01*
X143089397Y-87799993D01*
X143089397Y-87652915D01*
X143126166Y-87579376D01*
X143199705Y-87542607D01*
X143273244Y-87542607D01*
X143346783Y-87910302D01*
X143089397Y-87321990D02*
X143089397Y-87027833D01*
X142832010Y-87211681D02*
X143493861Y-87211681D01*
X143567400Y-87174912D01*
X143604170Y-87101372D01*
X143604170Y-87027833D01*
X144884330Y-93499270D02*
X144516635Y-93756656D01*
X144884330Y-93940504D02*
X144112170Y-93940504D01*
X144112170Y-93646348D01*
X144148940Y-93572809D01*
X144185709Y-93536039D01*
X144259248Y-93499270D01*
X144369557Y-93499270D01*
X144443096Y-93536039D01*
X144479865Y-93572809D01*
X144516635Y-93646348D01*
X144516635Y-93940504D01*
X144884330Y-93168344D02*
X144369557Y-93168344D01*
X144112170Y-93168344D02*
X144148940Y-93205113D01*
X144185709Y-93168344D01*
X144148940Y-93131574D01*
X144112170Y-93168344D01*
X144185709Y-93168344D01*
X144847560Y-92469723D02*
X144884330Y-92543262D01*
X144884330Y-92690340D01*
X144847560Y-92763879D01*
X144810791Y-92800649D01*
X144737252Y-92837418D01*
X144516635Y-92837418D01*
X144443096Y-92800649D01*
X144406326Y-92763879D01*
X144369557Y-92690340D01*
X144369557Y-92543262D01*
X144406326Y-92469723D01*
X144884330Y-92138797D02*
X144112170Y-92138797D01*
X144884330Y-91807872D02*
X144479865Y-91807872D01*
X144406326Y-91844641D01*
X144369557Y-91918180D01*
X144369557Y-92028489D01*
X144406326Y-92102028D01*
X144443096Y-92138797D01*
X144884330Y-90851864D02*
X144112170Y-90851864D01*
X144479865Y-90851864D02*
X144479865Y-90410630D01*
X144884330Y-90410630D02*
X144112170Y-90410630D01*
X144884330Y-89932626D02*
X144847560Y-90006165D01*
X144810791Y-90042934D01*
X144737252Y-90079704D01*
X144516635Y-90079704D01*
X144443096Y-90042934D01*
X144406326Y-90006165D01*
X144369557Y-89932626D01*
X144369557Y-89822317D01*
X144406326Y-89748778D01*
X144443096Y-89712009D01*
X144516635Y-89675239D01*
X144737252Y-89675239D01*
X144810791Y-89712009D01*
X144847560Y-89748778D01*
X144884330Y-89822317D01*
X144884330Y-89932626D01*
X144884330Y-89234005D02*
X144847560Y-89307544D01*
X144774021Y-89344313D01*
X144112170Y-89344313D01*
X144884330Y-88939849D02*
X144369557Y-88939849D01*
X144443096Y-88939849D02*
X144406326Y-88903079D01*
X144369557Y-88829540D01*
X144369557Y-88719232D01*
X144406326Y-88645692D01*
X144479865Y-88608923D01*
X144884330Y-88608923D01*
X144479865Y-88608923D02*
X144406326Y-88572153D01*
X144369557Y-88498614D01*
X144369557Y-88388306D01*
X144406326Y-88314767D01*
X144479865Y-88277997D01*
X144884330Y-88277997D01*
X144847560Y-87616146D02*
X144884330Y-87689685D01*
X144884330Y-87836763D01*
X144847560Y-87910302D01*
X144774021Y-87947072D01*
X144479865Y-87947072D01*
X144406326Y-87910302D01*
X144369557Y-87836763D01*
X144369557Y-87689685D01*
X144406326Y-87616146D01*
X144479865Y-87579376D01*
X144553404Y-87579376D01*
X144626943Y-87947072D01*
X144847560Y-87285220D02*
X144884330Y-87211681D01*
X144884330Y-87064603D01*
X144847560Y-86991064D01*
X144774021Y-86954294D01*
X144737252Y-86954294D01*
X144663713Y-86991064D01*
X144626943Y-87064603D01*
X144626943Y-87174912D01*
X144590174Y-87248451D01*
X144516635Y-87285220D01*
X144479865Y-87285220D01*
X144406326Y-87248451D01*
X144369557Y-87174912D01*
X144369557Y-87064603D01*
X144406326Y-86991064D01*
X142077560Y-93609578D02*
X142114330Y-93683117D01*
X142114330Y-93830195D01*
X142077560Y-93903734D01*
X142040791Y-93940504D01*
X141967252Y-93977273D01*
X141746635Y-93977273D01*
X141673096Y-93940504D01*
X141636326Y-93903734D01*
X141599557Y-93830195D01*
X141599557Y-93683117D01*
X141636326Y-93609578D01*
X142077560Y-92947727D02*
X142114330Y-93021266D01*
X142114330Y-93168344D01*
X142077560Y-93241883D01*
X142040791Y-93278652D01*
X141967252Y-93315422D01*
X141746635Y-93315422D01*
X141673096Y-93278652D01*
X141636326Y-93241883D01*
X141599557Y-93168344D01*
X141599557Y-93021266D01*
X141636326Y-92947727D01*
X141820174Y-92616801D02*
X141820174Y-92028489D01*
X142114330Y-91660793D02*
X141342170Y-91660793D01*
X141636326Y-91660793D02*
X141599557Y-91587254D01*
X141599557Y-91440176D01*
X141636326Y-91366637D01*
X141673096Y-91329868D01*
X141746635Y-91293098D01*
X141967252Y-91293098D01*
X142040791Y-91329868D01*
X142077560Y-91366637D01*
X142114330Y-91440176D01*
X142114330Y-91587254D01*
X142077560Y-91660793D01*
X141599557Y-91035712D02*
X142114330Y-90851864D01*
X141599557Y-90668016D02*
X142114330Y-90851864D01*
X142298178Y-90925403D01*
X142334947Y-90962172D01*
X142371717Y-91035712D01*
X141820174Y-90373860D02*
X141820174Y-89785548D01*
X142077560Y-89454622D02*
X142114330Y-89381083D01*
X142114330Y-89234005D01*
X142077560Y-89160466D01*
X142004021Y-89123696D01*
X141967252Y-89123696D01*
X141893713Y-89160466D01*
X141856943Y-89234005D01*
X141856943Y-89344313D01*
X141820174Y-89417852D01*
X141746635Y-89454622D01*
X141709865Y-89454622D01*
X141636326Y-89417852D01*
X141599557Y-89344313D01*
X141599557Y-89234005D01*
X141636326Y-89160466D01*
X142114330Y-88461845D02*
X141709865Y-88461845D01*
X141636326Y-88498614D01*
X141599557Y-88572153D01*
X141599557Y-88719232D01*
X141636326Y-88792771D01*
X142077560Y-88461845D02*
X142114330Y-88535384D01*
X142114330Y-88719232D01*
X142077560Y-88792771D01*
X142004021Y-88829540D01*
X141930482Y-88829540D01*
X141856943Y-88792771D01*
X141820174Y-88719232D01*
X141820174Y-88535384D01*
X141783404Y-88461845D01*
D12*
G36*
X152255100Y-129382600D02*
G01*
X152255100Y-128874600D01*
X151747100Y-128874600D01*
X151747100Y-129382600D01*
X152255100Y-129382600D01*
G37*
D13*
X146286100Y-131033600D02*
X147556100Y-131033600D01*
D14*
X156446100Y-130398600D02*
X157716100Y-130398600D01*
X158351100Y-125953600D02*
X158351100Y-129763600D01*
X157716100Y-125318600D02*
X158351100Y-125953600D01*
X156446100Y-125318600D02*
X157716100Y-125318600D01*
X155811100Y-125953600D02*
X156446100Y-125318600D01*
X157716100Y-130398600D02*
X158351100Y-129763600D01*
X155811100Y-129763600D02*
X156446100Y-130398600D01*
X146286100Y-130398600D02*
X147556100Y-130398600D01*
X148826100Y-130398600D02*
X150096100Y-130398600D01*
X151366100Y-130398600D02*
X152636100Y-130398600D01*
X153906100Y-130398600D02*
X155176100Y-130398600D01*
X155811100Y-125953600D02*
X155811100Y-129763600D01*
X153271100Y-125953600D02*
X153271100Y-129763600D01*
X150731100Y-125953600D02*
X150731100Y-129763600D01*
X148191100Y-125953600D02*
X148191100Y-129763600D01*
X155176100Y-125318600D02*
X155811100Y-125953600D01*
X153906100Y-125318600D02*
X155176100Y-125318600D01*
X153271100Y-125953600D02*
X153906100Y-125318600D01*
X152636100Y-125318600D02*
X153271100Y-125953600D01*
X151366100Y-125318600D02*
X152636100Y-125318600D01*
X150731100Y-125953600D02*
X151366100Y-125318600D01*
X150096100Y-125318600D02*
X150731100Y-125953600D01*
X148826100Y-125318600D02*
X150096100Y-125318600D01*
X148191100Y-125953600D02*
X148826100Y-125318600D01*
X147556100Y-125318600D02*
X148191100Y-125953600D01*
X146286100Y-125318600D02*
X147556100Y-125318600D01*
X145651100Y-125953600D02*
X146286100Y-125318600D01*
X145651100Y-129763600D02*
X145651100Y-125953600D01*
X155176100Y-130398600D02*
X155811100Y-129763600D01*
X153271100Y-129763600D02*
X153906100Y-130398600D01*
X152636100Y-130398600D02*
X153271100Y-129763600D01*
X150731100Y-129763600D02*
X151366100Y-130398600D01*
X150096100Y-130398600D02*
X150731100Y-129763600D01*
X148191100Y-129763600D02*
X148826100Y-130398600D01*
X147556100Y-130398600D02*
X148191100Y-129763600D01*
X145651100Y-129763600D02*
X146286100Y-130398600D01*
D15*
X148156100Y-124603600D02*
X158656100Y-124603600D01*
X148156100Y-115603600D02*
X158656100Y-115603600D01*
X150067523Y-121399863D02*
G75*
G03X155551100Y-120103600I2588577J1296263D01*
G01*
X150067523Y-118807337D02*
G75*
G02X155551100Y-120103600I2588577J-1296263D01*
G01*
X158656100Y-115603600D02*
X158656100Y-119103600D01*
X158656100Y-121103600D02*
X158656100Y-124603600D01*
X148156100Y-115603600D02*
X148156100Y-119203600D01*
X148156100Y-121003600D02*
X148156100Y-124603600D01*
X154456100Y-120103600D02*
G75*
G03X154456100Y-120103600I-1800000J0D01*
G01*
X147376100Y-120523600D02*
X147976100Y-120523600D01*
X147376100Y-119683600D02*
X147976100Y-119683600D01*
X144996100Y-121503600D02*
X146096100Y-121503600D01*
X144996100Y-121503600D02*
X144996100Y-120183600D01*
X148156100Y-114535732D02*
X158656100Y-114535732D01*
X148156100Y-105535732D02*
X158656100Y-105535732D01*
X150067523Y-111331995D02*
G75*
G03X155551100Y-110035732I2588577J1296263D01*
G01*
X150067523Y-108739469D02*
G75*
G02X155551100Y-110035732I2588577J-1296263D01*
G01*
X158656100Y-105535732D02*
X158656100Y-109035732D01*
X158656100Y-111035732D02*
X158656100Y-114535732D01*
X148156100Y-105535732D02*
X148156100Y-109135732D01*
X148156100Y-110935732D02*
X148156100Y-114535732D01*
X154456100Y-110035732D02*
G75*
G03X154456100Y-110035732I-1800000J0D01*
G01*
X147376100Y-110455732D02*
X147976100Y-110455732D01*
X147376100Y-109615732D02*
X147976100Y-109615732D01*
X144996100Y-111435732D02*
X146096100Y-111435732D01*
X144996100Y-111435732D02*
X144996100Y-110115732D01*
X148156100Y-104467866D02*
X158656100Y-104467866D01*
X148156100Y-95467866D02*
X158656100Y-95467866D01*
X150067523Y-101264129D02*
G75*
G03X155551100Y-99967866I2588577J1296263D01*
G01*
X150067523Y-98671603D02*
G75*
G02X155551100Y-99967866I2588577J-1296263D01*
G01*
X158656100Y-95467866D02*
X158656100Y-98967866D01*
X158656100Y-100967866D02*
X158656100Y-104467866D01*
X148156100Y-95467866D02*
X148156100Y-99067866D01*
X148156100Y-100867866D02*
X148156100Y-104467866D01*
X154456100Y-99967866D02*
G75*
G03X154456100Y-99967866I-1800000J0D01*
G01*
X147376100Y-100387866D02*
X147976100Y-100387866D01*
X147376100Y-99547866D02*
X147976100Y-99547866D01*
X144996100Y-101367866D02*
X146096100Y-101367866D01*
X144996100Y-101367866D02*
X144996100Y-100047866D01*
X148156100Y-94400000D02*
X158656100Y-94400000D01*
X148156100Y-85400000D02*
X158656100Y-85400000D01*
X150067523Y-91196263D02*
G75*
G03X155551100Y-89900000I2588577J1296263D01*
G01*
X150067523Y-88603737D02*
G75*
G02X155551100Y-89900000I2588577J-1296263D01*
G01*
X158656100Y-85400000D02*
X158656100Y-88900000D01*
X158656100Y-90900000D02*
X158656100Y-94400000D01*
X148156100Y-85400000D02*
X148156100Y-89000000D01*
X148156100Y-90800000D02*
X148156100Y-94400000D01*
X154456100Y-89900000D02*
G75*
G03X154456100Y-89900000I-1800000J0D01*
G01*
X147376100Y-90320000D02*
X147976100Y-90320000D01*
X147376100Y-89480000D02*
X147976100Y-89480000D01*
X144996100Y-91300000D02*
X146096100Y-91300000D01*
X144996100Y-91300000D02*
X144996100Y-89980000D01*
D12*
G36*
X152255100Y-83662600D02*
G01*
X152255100Y-83154600D01*
X151747100Y-83154600D01*
X151747100Y-83662600D01*
X152255100Y-83662600D01*
G37*
D13*
X146286100Y-85313600D02*
X147556100Y-85313600D01*
D14*
X156446100Y-84678600D02*
X157716100Y-84678600D01*
X158351100Y-80233600D02*
X158351100Y-84043600D01*
X157716100Y-79598600D02*
X158351100Y-80233600D01*
X156446100Y-79598600D02*
X157716100Y-79598600D01*
X155811100Y-80233600D02*
X156446100Y-79598600D01*
X157716100Y-84678600D02*
X158351100Y-84043600D01*
X155811100Y-84043600D02*
X156446100Y-84678600D01*
X146286100Y-84678600D02*
X147556100Y-84678600D01*
X148826100Y-84678600D02*
X150096100Y-84678600D01*
X151366100Y-84678600D02*
X152636100Y-84678600D01*
X153906100Y-84678600D02*
X155176100Y-84678600D01*
X155811100Y-80233600D02*
X155811100Y-84043600D01*
X153271100Y-80233600D02*
X153271100Y-84043600D01*
X150731100Y-80233600D02*
X150731100Y-84043600D01*
X148191100Y-80233600D02*
X148191100Y-84043600D01*
X155176100Y-79598600D02*
X155811100Y-80233600D01*
X153906100Y-79598600D02*
X155176100Y-79598600D01*
X153271100Y-80233600D02*
X153906100Y-79598600D01*
X152636100Y-79598600D02*
X153271100Y-80233600D01*
X151366100Y-79598600D02*
X152636100Y-79598600D01*
X150731100Y-80233600D02*
X151366100Y-79598600D01*
X150096100Y-79598600D02*
X150731100Y-80233600D01*
X148826100Y-79598600D02*
X150096100Y-79598600D01*
X148191100Y-80233600D02*
X148826100Y-79598600D01*
X147556100Y-79598600D02*
X148191100Y-80233600D01*
X146286100Y-79598600D02*
X147556100Y-79598600D01*
X145651100Y-80233600D02*
X146286100Y-79598600D01*
X145651100Y-84043600D02*
X145651100Y-80233600D01*
X155176100Y-84678600D02*
X155811100Y-84043600D01*
X153271100Y-84043600D02*
X153906100Y-84678600D01*
X152636100Y-84678600D02*
X153271100Y-84043600D01*
X150731100Y-84043600D02*
X151366100Y-84678600D01*
X150096100Y-84678600D02*
X150731100Y-84043600D01*
X148191100Y-84043600D02*
X148826100Y-84678600D01*
X147556100Y-84678600D02*
X148191100Y-84043600D01*
X145651100Y-84043600D02*
X146286100Y-84678600D01*
D13*
X144056100Y-95473600D02*
X144056100Y-96743600D01*
X143421100Y-97378600D02*
X144056100Y-96743600D01*
X141516100Y-96743600D02*
X142151100Y-97378600D01*
X143421100Y-94838600D02*
X144056100Y-95473600D01*
X142151100Y-94838600D02*
X143421100Y-94838600D01*
X141516100Y-95473600D02*
X142151100Y-94838600D01*
X141516100Y-96743600D02*
X141516100Y-95473600D01*
X144056100Y-113253600D02*
X144056100Y-114523600D01*
X143421100Y-115158600D02*
X144056100Y-114523600D01*
X141516100Y-114523600D02*
X142151100Y-115158600D01*
X142151100Y-115158600D02*
X143421100Y-115158600D01*
X144056100Y-111983600D02*
X143421100Y-112618600D01*
X144056100Y-110713600D02*
X144056100Y-111983600D01*
X143421100Y-110078600D02*
X144056100Y-110713600D01*
X141516100Y-110713600D02*
X142151100Y-110078600D01*
X141516100Y-111983600D02*
X141516100Y-110713600D01*
X142151100Y-112618600D02*
X141516100Y-111983600D01*
X143421100Y-112618600D02*
X144056100Y-113253600D01*
X141516100Y-113253600D02*
X142151100Y-112618600D01*
X141516100Y-114523600D02*
X141516100Y-113253600D01*
X144056100Y-105633600D02*
X144056100Y-106903600D01*
X143421100Y-107538600D02*
X144056100Y-106903600D01*
X141516100Y-106903600D02*
X142151100Y-107538600D01*
X144056100Y-109443600D02*
X143421100Y-110078600D01*
X144056100Y-108173600D02*
X144056100Y-109443600D01*
X143421100Y-107538600D02*
X144056100Y-108173600D01*
X141516100Y-108173600D02*
X142151100Y-107538600D01*
X141516100Y-109443600D02*
X141516100Y-108173600D01*
X142151100Y-110078600D02*
X141516100Y-109443600D01*
X144056100Y-104363600D02*
X143421100Y-104998600D01*
X144056100Y-103093600D02*
X144056100Y-104363600D01*
X143421100Y-102458600D02*
X144056100Y-103093600D01*
X141516100Y-103093600D02*
X142151100Y-102458600D01*
X141516100Y-104363600D02*
X141516100Y-103093600D01*
X142151100Y-104998600D02*
X141516100Y-104363600D01*
X143421100Y-104998600D02*
X144056100Y-105633600D01*
X141516100Y-105633600D02*
X142151100Y-104998600D01*
X141516100Y-106903600D02*
X141516100Y-105633600D01*
X144056100Y-98013600D02*
X144056100Y-99283600D01*
X143421100Y-99918600D02*
X144056100Y-99283600D01*
X141516100Y-99283600D02*
X142151100Y-99918600D01*
X144056100Y-101823600D02*
X143421100Y-102458600D01*
X144056100Y-100553600D02*
X144056100Y-101823600D01*
X143421100Y-99918600D02*
X144056100Y-100553600D01*
X141516100Y-100553600D02*
X142151100Y-99918600D01*
X141516100Y-101823600D02*
X141516100Y-100553600D01*
X142151100Y-102458600D02*
X141516100Y-101823600D01*
X143421100Y-97378600D02*
X144056100Y-98013600D01*
X141516100Y-98013600D02*
X142151100Y-97378600D01*
X141516100Y-99283600D02*
X141516100Y-98013600D01*
D10*
X146708480Y-124466933D02*
X147422766Y-124466933D01*
X147565623Y-124514552D01*
X147660861Y-124609790D01*
X147708480Y-124752647D01*
X147708480Y-124847885D01*
X147041814Y-123562171D02*
X147708480Y-123562171D01*
X146660861Y-123800266D02*
X147375147Y-124038361D01*
X147375147Y-123419314D01*
X146708480Y-114399065D02*
X147422766Y-114399065D01*
X147565623Y-114446684D01*
X147660861Y-114541922D01*
X147708480Y-114684779D01*
X147708480Y-114780017D01*
X146708480Y-114018112D02*
X146708480Y-113399065D01*
X147089433Y-113732398D01*
X147089433Y-113589541D01*
X147137052Y-113494303D01*
X147184671Y-113446684D01*
X147279909Y-113399065D01*
X147518004Y-113399065D01*
X147613242Y-113446684D01*
X147660861Y-113494303D01*
X147708480Y-113589541D01*
X147708480Y-113875255D01*
X147660861Y-113970493D01*
X147613242Y-114018112D01*
X146708480Y-104331199D02*
X147422766Y-104331199D01*
X147565623Y-104378818D01*
X147660861Y-104474056D01*
X147708480Y-104616913D01*
X147708480Y-104712151D01*
X146803719Y-103902627D02*
X146756100Y-103855008D01*
X146708480Y-103759770D01*
X146708480Y-103521675D01*
X146756100Y-103426437D01*
X146803719Y-103378818D01*
X146898957Y-103331199D01*
X146994195Y-103331199D01*
X147137052Y-103378818D01*
X147708480Y-103950246D01*
X147708480Y-103331199D01*
X146708480Y-94263333D02*
X147422766Y-94263333D01*
X147565623Y-94310952D01*
X147660861Y-94406190D01*
X147708480Y-94549047D01*
X147708480Y-94644285D01*
X147708480Y-93263333D02*
X147708480Y-93834761D01*
X147708480Y-93549047D02*
X146708480Y-93549047D01*
X146851338Y-93644285D01*
X146946576Y-93739523D01*
X146994195Y-93834761D01*
M02*
